<?xml version="1.0" encoding="utf-8"?>
<!-- Generator: Adobe Illustrator 26.0.1, SVG Export Plug-In . SVG Version: 6.00 Build 0)  -->
<svg version="1.1" id="Layer_1" xmlns="http://www.w3.org/2000/svg" xmlns:xlink="http://www.w3.org/1999/xlink" x="0px" y="0px"
	 viewBox="0 0 1018.43 733.49" style="enable-background:new 0 0 1018.43 733.49;" xml:space="preserve">
<style type="text/css">
	.st0{fill:none;stroke:#000000;stroke-width:1.3513;stroke-miterlimit:10;}
</style>
<g>
	<g>
		<path d="M1007.61,287.56H860.34c-14.72-65.88-47.82-126.36-96.7-175.25C695.68,44.35,605.32,6.92,509.21,6.92
			S322.74,44.35,254.78,112.32c-48.89,48.89-81.98,109.37-96.7,175.25H10.82l67.6,114.25l-67.6,114.25h170.8
			c17.64,38.64,42.23,74.21,73.17,105.12c67.96,67.96,158.32,105.38,254.43,105.38s186.47-37.42,254.43-105.38
			c30.93-30.92,55.52-66.49,73.17-105.12h170.8l-67.6-114.25L1007.61,287.56z M820.53,463.68
			c-41.37,132.58-165.28,229.09-311.32,229.09s-269.95-96.51-311.32-229.09c-9.56-30.63-14.71-63.19-14.71-96.93
			c0-27.3,3.37-53.82,9.73-79.18C228.38,145.94,356.73,40.72,509.21,40.72c152.47,0,280.83,105.22,316.29,246.85
			c6.35,25.36,9.73,51.89,9.73,79.18C835.24,400.49,830.09,433.04,820.53,463.68z"/>
	</g>
	<path d="M509.21,70.55c-163.58,0-296.2,132.61-296.2,296.19c0,163.59,132.62,296.2,296.2,296.2s296.2-132.61,296.2-296.2
		C805.42,203.16,672.79,70.55,509.21,70.55z M751.76,437.57c0.24,2.15,0.47,4.16,0.11,5.46c-0.22,0.73-2.16,2.37-3.33,3.34
		c-2.5,2.11-5.31,4.49-6.57,8.07c-1,2.87-1.18,5.77-1.31,8.34c-0.12,2.15-0.24,4.19-0.81,5.61c-1.27,3.07-1.35,6.27-1.42,9.1
		c-0.04,2.05-0.08,4.18-0.64,5.31c-1,2.07-1.8,4.19-2.6,6.23c-0.92,2.39-1.8,4.66-2.85,6.62c-0.69,0.54-2.95,1.26-4.33,1.69
		c-3.69,1.18-7.88,2.49-10.18,6.15c-1.37,2.16-2.34,4.35-3.3,6.46c-0.3,0.65-0.58,1.27-0.87,1.89c0,0.01-0.01,0.01-0.01,0.03
		c-0.68,1.42-1.35,2.76-2.16,3.91c-0.18,0.23-0.34,0.47-0.49,0.72c0,0.01-0.01,0.01-0.03,0.03c-1.45,2.28-2.3,4.79-3.04,6.99
		c-0.7,2.07-1.37,4.02-2.33,5.19c-1.91,2.39-3.99,4.65-6.22,7.06c-1.01,1.12-2.04,2.23-3.04,3.37c-0.99,1.08-2.78,2.01-4.69,3.01
		c-2.34,1.2-5,2.58-7.21,4.77c-2.22,2.22-3.58,4.88-4.79,7.23c-0.99,1.92-1.91,3.72-3,4.68c-2.43,2.19-3.91,4.99-5.2,7.48
		c-0.97,1.83-1.99,3.72-3.01,4.56c-0.78,0.61-3.03,0.97-4.84,1.26c-3.04,0.49-6.49,1.04-9.4,3.11c-0.92,0.66-2.53,1.04-4.3,1.39
		c-0.24,0.05-0.49,0.09-0.73,0.15c-1.93,0.39-4.06,0.82-6.11,1.69c-0.82,0.34-1.64,0.74-2.43,1.23c-3.1,1.93-4.83,4.96-6.38,7.64
		c-0.89,1.54-2.01,3.47-2.81,3.91c-1.38,0.77-3.41,1.14-5.56,1.54c-2.53,0.43-5.38,0.96-8.08,2.26c-1.92,0.93-4.11,1.57-6.44,2.23
		c-2.15,0.62-4.38,1.26-6.64,2.19c-3.64,1.51-5.81,4.73-7.73,7.57c-0.81,1.23-2.2,3.29-2.87,3.61c-2.31,0.8-4.87,1.38-7.54,2
		c-1.99,0.45-4.06,0.92-6.1,1.5c-1.24,0.37-3.34,0.08-5.37-0.18c-2.74-0.38-5.88-0.78-9.07-0.05c-1.55,0.35-3.58,0.15-5.75-0.04
		c-2.49-0.23-5.33-0.5-8.26,0.01c-1.43,0.23-2.83,0.49-4.23,0.74c-3.16,0.58-6.16,1.12-9.27,1.47c-4.14,0.46-7.14,3.37-9.79,5.92
		c-1.03,1-2.73,2.66-3.51,2.96c-0.89-0.04-2.93-1.16-4.31-1.92c-2.78-1.54-5.98-3.3-9.71-3.3c-2.73,0-5.26,0.47-7.69,0.91
		c-2.24,0.43-4.38,0.82-6.22,0.72c-2.39-0.14-4.85-0.57-7.45-1.04c-2.04-0.38-4.15-0.76-6.33-1.01c-2.78-0.31-5.53-0.05-7.95,0.19
		c-2.27,0.22-4.41,0.41-6.16,0.12c-1.1-0.18-2.83-1.49-4.35-2.65c-2.34-1.77-4.99-3.77-8.35-4.54c-2.07-0.46-4.14-1.35-6.34-2.28
		c-2.07-0.87-4.22-1.8-6.58-2.47c-4.23-1.2-8.29,0.72-11.88,2.42c-1.27,0.61-3.33,1.6-4.24,1.73c-0.85-0.49-2.24-2.23-3.19-3.43
		c-1.99-2.49-4.24-5.34-7.68-6.75c-1.58-0.66-3.15-1.55-4.76-2.53c0.08-0.04,0.16-0.08,0.26-0.15c0.27-0.2,0.54-0.39,0.8-0.59
		c0.53-0.39,1.01-0.89,1.47-1.39c0.23-0.24,0.46-0.53,0.68-0.78c0.2-0.26,0.36-0.51,0.53-0.78c0.18-0.27,0.34-0.54,0.5-0.81
		l0.22-0.42l0.11-0.19l0.04-0.09c0.22-0.51,0.45-1.03,0.66-1.61c0.22-0.57,0.43-1.19,0.61-1.85c0.19-0.65,0.34-1.34,0.43-1.93
		c0.11-0.61,0.18-1.03,0.2-1.32l0.04-0.45c0.01-0.19,0.07-0.45,0.22-0.87c0.08-0.19,0.18-0.39,0.24-0.61l0.23-0.47
		c0.15-0.3,0.18-0.42,0.65-1c0.28-0.36,0.77-0.99,1.26-1.7c0.22,0.03,0.45,0.07,0.66,0.09c2.27,0.3,4.42,0.58,6.31,1.34
		c1.1,0.42,2.22,0.7,3.37,0.91c1.47,0.26,2.99,0.38,4.46,0.49c2.23,0.18,4.37,0.32,6.3,0.96c0.2,0.07,0.43,0.14,0.64,0.19h0.01
		c2.38,0.7,4.79,0.99,7.14,1.26c2.1,0.24,4.08,0.49,6.04,0.99c1.22,0.31,2.42,0.64,3.58,0.97c0.31,0.08,0.64,0.18,0.95,0.26
		c2.88,0.81,5.85,1.64,8.98,2.24c3.45,0.65,6.72,1.03,10.19,1.42c1.19,0.15,2.39,0.28,3.64,0.43c1.73,0.23,3.69,2.1,5.6,3.89
		c2.37,2.26,4.83,4.61,7.8,4.81c1.84,0.11,3.7,0.34,5.68,0.59h0.01c0.04,0,0.08,0.01,0.11,0.01c2.83,0.35,5.72,0.73,8.58,0.73
		c2.74,0,5.48-0.58,8.12-1.14c1.8-0.38,3.49-0.73,5.15-0.91c0.35-0.04,0.7-0.07,1.05-0.09c2.92-0.18,5.41-2.26,7.8-4.26
		c1.91-1.61,3.88-3.26,5.68-3.49c3.73-0.46,7.17-1.12,10.8-1.84c0.96-0.19,1.95-0.38,2.93-0.57c1.92-0.36,4.11,0.11,6.45,0.62
		c2.7,0.59,5.5,1.2,8.21,0.51c1.92-0.49,3.97-0.81,5.96-1.12c2.66-0.42,5.41-0.85,8.03-1.7c0.23-0.07,0.45-0.15,0.66-0.2
		c1.07-0.35,2.15-0.68,3.22-1.01c3.22-1,6.53-2.04,9.67-3.29c0.78-0.32,1.57-0.64,2.35-0.97c3.56-1.47,7.08-3.14,10.5-4.76l0.2-0.09
		c1.84-0.87,3.95-1.35,6.18-1.87c2.61-0.59,5.31-1.23,7.69-2.54c2.61-1.42,3.77-4.68,4.92-7.81c0.91-2.51,1.85-5.11,3.34-6.06
		c3.04-1.93,5.75-3.95,8.64-6.06c0.89-0.68,1.8-1.34,2.72-2.01c1.57-1.15,3.8-1.6,6.15-2.08c2.76-0.57,5.61-1.15,7.76-2.95
		c1.57-1.28,3.56-2.2,5.65-3.16c2.45-1.14,4.96-2.3,6.96-4.18c0.78-0.74,1.58-1.47,2.39-2.23c2.69-2.5,5.48-5.08,7.99-7.75
		c1.97-2.1,3.73-4.49,5.45-6.79c1.14-1.51,2.28-3.1,3.47-4.5c1.88-2.28,1.85-5.65,1.84-8.91c-0.01-2.62-0.04-5.31,1.01-6.77
		c2.72-3.73,5.19-7.38,7.83-11.49c1.04-1.66,2.81-2.97,4.66-4.37c2.19-1.62,4.45-3.3,5.79-5.75c0.92-1.66,2.84-3.01,4.88-4.45
		c2.39-1.69,4.87-3.43,6.08-6c1.27-2.72,0.14-6.11-0.96-9.4c-0.91-2.64-1.81-5.35-1.18-6.98c0.7-1.8,2.35-3.35,4.08-5.02l0.04-0.04
		c1.78-1.7,3.61-3.46,4.62-5.66c0.14-0.31,0.27-0.62,0.38-0.95c0.61-1.92,1.54-3.79,2.51-5.75c1.19-2.38,2.43-4.84,3.11-7.49
		c0.69-2.73-0.12-5.6-0.91-8.4c-0.66-2.38-1.3-4.64-0.93-6.52c0.38-1.96,1.31-3.88,2.3-5.91c0.55-1.14,1.11-2.28,1.57-3.47h0.19
		c1.77,0.01,4.08-0.07,6.57-0.65c0.55-0.05,1.15-0.09,1.74-0.18c0.49-0.07,1.01-0.15,1.47-0.23c0.19,0.26,0.37,0.47,0.68,0.81
		c0.5,0.57,1.31,1.35,2.38,2.07h0.01c0.32,0.22,0.66,0.42,1.03,0.62c0.82,0.42,1.69,0.78,2.61,1c0.45,0.12,0.92,0.23,1.35,0.28
		c0.42,0.05,0.84,0.09,1.27,0.11l1.2,0.07l0.57,0.01c0,0,0,0,0,0.01c0.5,2.04,0.99,3.96,0.76,5.26c-0.34,2.05-1.12,4.23-1.96,6.53
		c-0.78,2.15-1.6,4.38-2.14,6.79C751.08,431.77,751.45,434.84,751.76,437.57z M403.59,578.78c-0.49,0.99-1.03,2.16-1.42,3.47
		c-0.15,0.51-0.27,0.97-0.36,1.38c-0.78,0.11-1.87,0.27-3.22,0.69l-0.7,0.24c-0.26,0.11-0.54,0.23-0.81,0.35
		c-0.55,0.27-1.05,0.5-1.64,0.91c-0.57,0.39-1.14,0.76-1.64,1.26c-0.53,0.46-1.01,1-1.46,1.53c-0.41,0.53-0.77,1.08-1.11,1.64
		l-0.47,0.88l-0.55,0.99l-1.03,1.78c-2.31-1.28-4.58-2.81-6.99-4.42c-1.51-1.03-3.06-2.07-4.61-3.06c-1.24-0.78-2.51-2.45-3.84-4.19
		c-1.61-2.14-3.42-4.56-5.96-6.34c-0.95-0.68-1.91-2.49-2.84-4.23c-1.35-2.54-2.88-5.41-5.56-7.54c-2.24-1.8-4.77-2.99-6.99-4.02
		c-1.99-0.93-3.87-1.81-5.12-2.93c-2.65-2.35-5.95-3.31-8.87-4.14c-1.84-0.54-3.93-1.14-4.61-1.81c-0.45-0.61-0.74-3.04-0.93-4.5
		c-0.43-3.47-0.92-7.41-3.6-10.41c-2.76-3.07-6.79-3.89-10.33-4.62c-1.42-0.28-3.74-0.76-4.41-1.23c-0.89-1.16-1.51-3.11-2.19-5.16
		c-0.82-2.54-1.77-5.42-3.56-7.95c-1.92-2.7-4.64-4.47-7.02-6.03c-1.74-1.14-3.53-2.3-4.19-3.37c-0.91-1.43-1.5-3.51-2.12-5.73
		c-0.69-2.43-1.45-5.18-2.85-7.69c-1.19-2.14-2.57-4.08-3.92-5.95c-1.46-2.04-2.85-3.96-3.77-5.88c-0.57-1.19-0.65-3.3-0.74-5.37
		c-0.09-2.8-0.22-5.95-1.47-8.96c-1.31-3.15-2.42-6.38-3.58-9.79c-0.37-1.08-0.74-2.18-1.12-3.26c-0.72-2.03-1.12-4.31-1.53-6.75
		c-0.39-2.19-0.8-4.49-1.46-6.81c-0.53-1.83-0.65-3.97-0.78-6.29c-0.14-2.38-0.28-4.87-0.87-7.46c-0.89-3.93-3.85-6.6-6.46-8.95
		c-1.1-0.99-2.93-2.64-3.16-3.3c-0.26-1.55,0.05-3.64,0.39-5.84c0.39-2.56,0.82-5.45,0.5-8.42c-0.3-2.65-1-5.08-1.7-7.44
		c-0.66-2.23-1.27-4.35-1.41-6.23c0.18-0.77,1.58-2.64,2.43-3.77c1.47-1.99,3.1-4.14,3.97-6.65h21.82
		c-0.12,0.82-0.27,1.66-0.42,2.51c-0.43,2.51-0.89,5.11-0.72,7.8c0.12,1.87-1.11,4.14-2.3,6.35c-0.78,1.45-1.57,2.95-2.08,4.45
		c-0.31,0.93-0.51,1.89-0.55,2.84v0.01c-0.01,0.36,0.01,0.7,0.05,1.07c0.37,2.93,2.72,5.26,5,7.53c1.81,1.78,3.69,3.66,4.02,5.41
		l0.45,2.39c0.73,3.87,1.42,7.52,2.38,11.3c0.66,2.61,1.7,4.99,2.73,7.29c0.03,0.08,0.05,0.16,0.09,0.24
		c0.84,1.88,1.62,3.65,2.24,5.53c0.62,1.92,0.68,4.07,0.77,6.31c0.09,2.62,0.18,5.33,1.19,7.85c0.19,0.5,0.37,1.01,0.51,1.54
		c0.42,1.46,0.68,3.04,0.95,4.68c0.24,1.45,0.5,2.93,0.88,4.38c0.28,1.14,0.65,2.26,1.15,3.33c1.18,2.47,2.83,4.65,4.41,6.77
		c1.3,1.73,2.53,3.38,3.5,5.12c0.95,1.72,1.78,3.57,2.58,5.35c0.5,1.11,1,2.22,1.54,3.33c0.68,1.38,1.38,2.74,2.22,4.06
		c1.96,3.08,4.15,6.07,6.29,8.94c0.65,0.88,1.28,1.76,1.93,2.64c1.68,2.3,3.62,4.38,5.52,6.38c1.3,1.38,2.64,2.8,3.85,4.27
		c1.74,2.08,4.06,3.52,6.3,4.89c1.92,1.16,3.73,2.28,5.11,3.76c0.3,0.31,0.54,0.73,0.74,1.2c0.59,1.43,0.8,3.51,0.97,5.53
		c0.31,3.33,0.64,6.8,2.81,8.83c1.97,1.87,4.46,3.11,6.87,4.3c2.07,1.04,4.02,2.01,5.57,3.3c0.19,0.16,0.39,0.32,0.57,0.5
		c1.32,1.14,2.57,2.41,3.88,3.74c1.91,1.92,3.87,3.92,6.1,5.54c1.42,1.04,2.92,1.97,4.46,2.87c0.97,0.57,1.96,1.14,2.93,1.69
		c1.64,0.91,3.33,1.87,4.89,2.87c2.57,1.64,5.33,3.04,8,4.41c1.51,0.78,3.1,1.57,4.6,2.41c1.32,0.73,2.64,1.55,3.96,2.43
		c-0.12,0.16-0.24,0.31-0.34,0.47c-0.35,0.51-0.66,1.01-0.96,1.5C404.12,577.8,403.83,578.28,403.59,578.78z M455.54,260.4
		c-5.19-17.7-25.52-23.81-27.16-24.27c-20.2-5.75-43.8,6.02-54.77,23.81c-15.83,25.71-0.18,55.71,4.14,63.97
		c12.74,24.38,34.1,35.18,41.88,38.66c-5.5-1.41-39.42-10.63-57.06-44.64c-3.18-6.12-15.83-32.34-6.33-63.51
		c2.15-7.06,9.57-30.12,33.03-44.18c7.6-4.57,24.01-12.45,44.64-9.67c5.76,0.77,33.77,4.56,43.72,26.69
		c0.7,1.58,9.52,22.01-2.3,35.91c-6.31,7.41-15.28,9.17-18.87,9.67C456.85,269.73,456.97,265.31,455.54,260.4z M450.59,387.54
		c0.26,1.12,0.47,2.28,0.7,3.42c0.68,3.45,1.39,7.02,2.92,10.19c1.51,3.16,3.83,5.85,6.07,8.45c0.84,0.96,1.64,1.88,2.37,2.83
		c2.97,3.73,6.6,6.8,10.06,9.56c3.6,2.88,7.52,4.85,11.91,6.98c1.35,0.65,2.68,1.46,4.07,2.3c2.64,1.6,5.35,3.26,8.49,3.96
		c1.15,0.27,2.31,0.37,3.47,0.37c1.81,0,3.64-0.23,5.41-0.46c1.72-0.23,3.49-0.46,5.16-0.46c5.62,0,9.69-0.39,13.61-1.28
		c1.41-0.31,2.89-0.55,4.31-0.78c3.12-0.49,6.34-1.01,9.27-2.42l0.93-0.46c3.92-1.87,7.94-3.81,11.34-6.52
		c2.39-1.92,3.89-4.57,5.37-7.12c0.89-1.6,1.76-3.1,2.78-4.39c0.78-0.97,1.64-1.95,2.45-2.88c2.15-2.46,4.37-5.03,5.88-8.15
		l0.61-1.28c1.8-3.69,3.66-7.53,4.61-11.71c0.76-3.33,0.84-6.83,0.84-10.26h17.34c0,3.52-0.05,6.88-0.64,10.18
		c-0.12,0.66-0.23,1.31-0.35,1.97c-0.69,4.12-1.34,8-2.69,11.69c-1.01,2.77-2.65,5.2-4.39,7.8c-0.92,1.37-1.87,2.77-2.72,4.24
		c-0.96,1.68-1.76,3.46-2.5,5.2c-1.18,2.68-2.27,5.22-4,7.27c-1.66,1.97-3.95,3.39-6.38,4.87c-1.7,1.05-3.45,2.14-5.03,3.45
		c-0.7,0.59-1.41,1.2-2.11,1.81c-2.89,2.47-5.58,4.81-8.8,6.65c-3.11,1.81-6.44,2.97-9.96,4.19c-0.95,0.32-1.88,0.66-2.83,1.01
		c-4.52,1.64-8.64,3.07-13.22,3.88c-1.77,0.3-3.53,0.78-5.23,1.24c-2.91,0.78-5.65,1.54-8.5,1.54c-4.07,0-8.15-0.73-12.09-1.43
		c-0.61-0.11-1.23-0.23-1.83-0.34c-1.89-0.32-3.81-0.46-5.68-0.61c-1.66-0.12-3.27-0.26-4.81-0.49c0-0.74,0.09-1.49,0.2-2.2
		c-0.18,0.69-0.32,1.42-0.41,2.16c-1.18-0.19-2.33-0.45-3.42-0.84c-2.66-0.97-5.16-2.73-7.6-4.43c-1.45-1.03-2.97-2.1-4.53-2.99
		c-4.06-2.35-7.91-5.06-11.46-8.04c-1.34-1.12-2.8-2.16-4.22-3.18c-2.56-1.84-4.96-3.57-6.81-5.77c-1.55-1.87-2.39-4.35-3.27-7
		c-0.69-2.04-1.39-4.16-2.5-6.06c-2.19-3.81-4.02-7.79-5.73-12.51c-1.41-3.87-2.46-7.96-3.39-13.32c-0.38-2.15-1.24-4.22-2.08-6.22
		c-0.54-1.28-1.05-2.54-1.46-3.76h19.76C449.85,380.75,449.82,384.21,450.59,387.54z M468.57,387.55c1.26,3.88,3.37,7.79,6.65,12.3
		c2.47,3.39,5.84,6.64,9.96,9.67c3.91,2.84,8.53,4.54,12.49,5.84c4.03,1.3,8.6,2.78,13.55,2.78c4.18,0,8.64-0.8,13.65-2.42
		c4.75-1.54,8.92-3.61,12.42-6.15c4.3-3.14,7.58-6.29,10.02-9.64c2.66-3.66,4.84-7.96,6.3-12.46c1.05-3.22,1.32-6.64,1.39-10.07
		h15.1c0,3.37-0.05,6.54-0.74,9.57c-0.88,3.84-2.64,7.49-4.37,11.05l-0.62,1.28c-1.34,2.74-3.33,5.04-5.43,7.46
		c-0.82,0.96-1.7,1.95-2.51,2.99c-1.19,1.47-2.15,3.16-3.08,4.79c-1.38,2.41-2.68,4.7-4.6,6.23c-3.12,2.49-6.99,4.35-10.75,6.15
		l-0.93,0.46c-2.51,1.2-5.38,1.66-8.4,2.14c-1.49,0.26-3.01,0.49-4.53,0.84c-3.68,0.82-7.54,1.19-12.92,1.19
		c-1.89,0-3.76,0.26-5.57,0.49c-2.77,0.36-5.38,0.72-7.79,0.16c-2.64-0.61-5.04-2.04-7.57-3.6c-1.39-0.84-2.84-1.73-4.33-2.45
		c-4.22-2.03-7.98-3.92-11.32-6.58c-3.33-2.65-6.77-5.6-9.56-9.08c-0.8-0.99-1.64-1.96-2.46-2.91c-2.1-2.46-4.29-4.98-5.62-7.77
		c-1.35-2.83-2.01-6.19-2.66-9.44c-0.23-1.16-0.46-2.35-0.72-3.5c-0.69-3.01-0.68-6.15-0.61-9.46h14.8
		C467.67,380.78,467.51,384.28,468.57,387.55z M494.46,390.46c4.66,4.65,10.61,7.21,16.76,7.21c6.37,0,12.37-2.51,16.91-7.04
		c3.79-3.77,6.21-8.38,7.02-13.22h16.74c-0.05,3.22-0.31,6.27-1.23,9.11c-1.37,4.19-3.39,8.19-5.85,11.59
		c-2.24,3.1-5.3,6.02-9.34,8.96c-3.23,2.35-7.11,4.27-11.55,5.71c-4.69,1.53-8.84,2.26-12.69,2.26c-4.45,0-8.77-1.38-12.57-2.62
		c-3.74-1.22-8.07-2.81-11.63-5.39c-3.88-2.84-7-5.85-9.27-8.98c-3.1-4.24-5.07-7.88-6.22-11.44c-0.91-2.74-0.76-5.83-0.61-9.08
		v-0.11h16.74C488.45,382.24,490.81,386.79,494.46,390.46z M493.22,377.4h36.38c-0.78,3.41-2.62,6.69-5.3,9.37
		c-3.52,3.52-8.17,5.45-13.07,5.45c-4.69,0-9.27-2-12.9-5.62C495.71,383.98,493.96,380.8,493.22,377.4z M615.39,379.47
		c-0.14-0.7-0.27-1.39-0.39-2.07h24.1c0.27,1.12,0.64,2.22,0.99,3.31c0.77,2.38,1.51,4.62,1.3,6.68c-0.22,1.95-1.69,3.87-3.27,5.91
		c-1.58,2.04-3.2,4.15-3.72,6.58c-0.24,1.16-0.47,2.28-0.69,3.41c-0.65,3.27-1.26,6.37-2.26,9.46c-0.34,1.04-0.66,2.08-0.99,3.11
		c-1.03,3.27-1.99,6.37-3.35,9.42c-1.35,3.04-2.99,5.79-4.72,8.68c-0.57,0.96-1.15,1.93-1.73,2.92c-1.12,1.97-1.76,4.19-2.35,6.31
		c-0.68,2.39-1.31,4.65-2.61,6.41c-2.58,3.56-5.37,7.3-8.37,10.64c-1.62,1.78-3.66,3.2-5.83,4.69c-0.49,0.34-0.99,0.69-1.46,1.04
		c-0.09-0.11-0.2-0.22-0.28-0.34c-0.51-0.59-0.99-1.27-1.58-2c-0.57-0.72-1.15-1.41-1.74-2.05c-0.62-0.66-1.31-1.34-2.07-1.95
		c-0.8-0.62-1.49-1.04-2.07-1.51c-0.59-0.47-1.11-1.01-1.72-1.65c-0.62-0.66-1.31-1.32-2.07-1.88c-0.76-0.59-1.43-0.99-2-1.5
		c-0.3-0.24-0.58-0.53-0.88-0.8l-0.41-0.45l-0.32-0.38c-0.31-0.43-0.45-0.95-0.46-1.55c0.49-0.53,0.97-1.04,1.46-1.54
		c1.97-1.97,3.19-4.46,4.35-6.88c0.89-1.81,1.72-3.52,2.84-4.99c1.11-1.42,2.49-2.69,3.96-4.02c2-1.78,4.07-3.64,5.48-6.07
		c2.24-3.85,4.27-8.03,6.08-12.38c1.57-3.79,3.35-8.3,4.61-13.01c1.07-3.99,2.24-8.73,2.87-13.52
		C616.45,384.78,615.91,382.08,615.39,379.47z M643.05,379.75c-0.26-0.81-0.53-1.58-0.74-2.35h23.97c0.23,1.11,0.53,2.19,0.82,3.24
		c0.31,1.15,0.61,2.26,0.82,3.34c-0.54-0.08-1.1-0.14-1.66-0.18c-0.57-0.05-1.16-0.04-1.77,0.03c-0.3,0.04-0.59,0.08-0.91,0.15
		c-0.28,0.07-0.49,0.15-0.73,0.22l-2.92,0.74c-0.99,0.27-1.99,0.57-2.96,0.93c-0.49,0.18-0.97,0.38-1.45,0.61
		c-0.49,0.24-0.97,0.51-1.39,0.91c-0.87,0.73-1.3,1.76-1.74,2.58c-0.49,0.85-1.24,1.51-2.15,1.96c0.96-0.27,1.88-0.84,2.53-1.68
		c0.65-0.81,1.19-1.65,1.95-2.1c0.38-0.26,0.82-0.39,1.26-0.53c0.46-0.14,0.93-0.24,1.41-0.35c0.96-0.18,1.93-0.31,2.91-0.41
		l3.01-0.27c0.23-0.01,0.53-0.07,0.73-0.07c0.2-0.01,0.39-0.01,0.59,0c0.39,0.01,0.8,0.08,1.24,0.19c0.72,0.16,1.49,0.43,2.31,0.68
		v0.04c-0.22,2.31,0.12,4.66,0.45,6.95c0.35,2.53,0.68,4.92,0.3,7.11c-0.47,2.68-1.38,5.41-2.28,8.04
		c-0.58,1.76-1.19,3.56-1.68,5.35c-1.16,4.38-2.57,8.84-4.16,13.24c-0.73,2-2.41,3.7-4.16,5.53c-1.7,1.74-3.45,3.53-4.49,5.75
		c-1.07,2.3-1.15,4.96-1.24,7.52c-0.09,2.56-0.18,4.98-1.19,6.72c-1.04,1.8-3.04,3.14-5.18,4.56c-2.08,1.39-4.26,2.83-5.69,4.85
		c-1.43,2.07-2.01,4.62-2.6,7.11c-0.57,2.49-1.1,4.85-2.41,6.41c-1.91,2.26-4.18,4.39-6.38,6.46c-1.18,1.1-2.38,2.22-3.5,3.35
		c-0.01-0.01-0.03-0.01-0.04-0.03c-0.27-0.28-0.54-0.55-0.82-0.81c-0.32-0.24-0.65-0.5-1.01-0.7c-0.73-0.42-1.53-0.73-2.24-0.84
		c-0.74-0.16-1.34-0.18-1.87-0.2l-1.2,0.01c-0.32,0-0.47-0.03-0.59-0.03c-0.08-0.03-0.14,0-0.18-0.04
		c-0.12-0.03-0.46-0.38-0.53-0.51c-0.11-0.14-0.18-0.47-0.15-1.31c0.01-0.84,0.08-2.23-0.46-3.65c-0.26-0.69-0.62-1.35-1.04-1.85
		c-0.19-0.27-0.41-0.51-0.69-0.77c-0.27-0.27-0.53-0.53-0.88-0.73l-0.5-0.31c-0.16-0.09-0.35-0.16-0.53-0.24
		c-0.37-0.18-0.72-0.26-1.07-0.35c-0.38-0.09-0.68-0.11-1.01-0.15c-0.31-0.03-0.59-0.03-0.88-0.03c-1.1,0.04-1.89,0.18-2.45,0.18
		c-0.55-0.03-0.66-0.04-0.89-0.2c-0.04-0.01-0.07-0.04-0.09-0.07c-0.04-0.01-0.05-0.04-0.12-0.12c-0.11-0.12-0.24-0.24-0.32-0.36
		c-0.2-0.24-0.37-0.47-0.5-0.72c-0.14-0.24-0.24-0.49-0.37-0.82c-0.11-0.35-0.23-0.8-0.42-1.3c-0.18-0.51-0.43-1.05-0.7-1.55
		c-0.12-0.18-0.26-0.31-0.37-0.49c0.42-0.3,0.81-0.58,1.24-0.88c2.2-1.54,4.49-3.12,6.37-5.19c3.08-3.43,5.95-7.26,8.58-10.88
		c1.61-2.19,2.35-4.83,3.07-7.38c0.58-2.04,1.12-3.96,2.07-5.61c0.57-0.97,1.14-1.93,1.69-2.88c1.7-2.84,3.47-5.79,4.89-9.02
		c1.45-3.2,2.49-6.54,3.49-9.75c0.31-1.03,0.64-2.05,0.96-3.07c1.08-3.3,1.7-6.46,2.37-9.84c0.22-1.11,0.43-2.22,0.69-3.35
		c0.36-1.74,1.7-3.49,3.12-5.33c1.78-2.3,3.61-4.68,3.91-7.5C644.77,385,643.89,382.33,643.05,379.75z M705.98,398.76
		c1.1,0.49,2.08,0.87,2.83,1.22c0.76,0.35,1.5,0.76,2.33,1.18l2.62,1.46c0.15,0.08,0.31,0.16,0.46,0.24
		c1.78,0.93,3.92,1.89,6.29,2.54c0.31,0.09,0.66,0.18,1.03,0.27c0.36,0.07,0.73,0.14,1.11,0.2c0.73,0.12,1.47,0.18,2.16,0.23
		c1.42,0.08,2.72,0.01,3.79-0.03c0.84-0.03,1.5-0.04,2.15-0.04c-0.32,0.72-0.66,1.43-1.03,2.16c-1.04,2.14-2.11,4.33-2.57,6.71
		c-0.49,2.61,0.28,5.33,1.01,7.95c0.7,2.49,1.35,4.85,0.88,6.77c-0.59,2.33-1.7,4.53-2.88,6.87c-0.99,1.97-2.01,4.03-2.69,6.16
		c-0.11,0.31-0.23,0.61-0.38,0.89c-0.81,1.57-2.28,2.99-3.85,4.47c-0.32,0.32-0.65,0.64-0.97,0.96c-1.57,1.53-3.06,3.15-3.85,5.16
		c-1.07,2.68,0.05,5.95,1.11,9.11c0.91,2.7,1.84,5.5,1.1,7.08c-0.85,1.81-2.89,3.26-5.04,4.79c-2.24,1.57-4.56,3.19-5.83,5.5
		c-1.01,1.84-2.91,3.26-4.91,4.75c-2,1.49-4.08,3.03-5.46,5.18c-2.57,4.07-5,7.67-7.68,11.34c-1.66,2.27-1.64,5.5-1.62,8.61
		c0.03,2.7,0.04,5.49-1.12,6.91c-1.23,1.49-2.43,3.08-3.57,4.64c-1.66,2.23-3.39,4.54-5.23,6.52c-2.43,2.58-5.18,5.12-7.84,7.58
		c-0.8,0.76-1.61,1.5-2.41,2.26c-1.61,1.51-3.81,2.51-6.14,3.6c-2.18,1.01-4.45,2.05-6.33,3.61c-1.55,1.3-3.91,1.78-6.39,2.28
		c-2.57,0.54-5.25,1.08-7.35,2.61c-0.93,0.68-1.84,1.35-2.76,2.03c-2.83,2.1-5.49,4.07-8.44,5.93c-2.39,1.53-3.53,4.62-4.6,7.62
		c-0.95,2.6-1.92,5.29-3.51,6.16c-1.99,1.1-4.35,1.65-6.88,2.23c-2.28,0.51-4.66,1.07-6.81,2.1l-0.19,0.08
		c-3.58,1.68-7.27,3.42-10.96,4.95c-0.57,0.26-1.14,0.49-1.7,0.7c-3.04,1.2-6.3,2.22-9.45,3.2c-0.81,0.24-1.65,0.5-2.46,0.76
		c-0.5,0.16-0.97,0.31-1.47,0.47c-2.38,0.78-4.88,1.16-7.53,1.58c-2.07,0.32-4.19,0.66-6.27,1.19c-1.97,0.51-4.3-0.01-6.76-0.54
		c-2.53-0.54-5.14-1.12-7.69-0.64c-1,0.18-1.97,0.38-2.95,0.57c-3.58,0.69-6.96,1.35-10.57,1.81c-2.72,0.34-5.06,2.3-7.31,4.18
		c-2,1.69-4.08,3.43-5.98,3.54c-0.54,0.03-1.07,0.08-1.6,0.15c-1.72,0.2-3.42,0.57-5.08,0.92c-2.49,0.53-5.06,1.07-7.48,1.07
		c-2.03,0-4.15-0.2-6.25-0.47c-0.65-0.07-1.3-0.16-1.95-0.24c-1.96-0.24-4.02-0.5-6-0.64c-1.84-0.11-3.88-2.07-5.85-3.95
		c-2.26-2.14-4.6-4.38-7.37-4.72c-1.23-0.15-2.45-0.3-3.65-0.43c-3.42-0.39-6.64-0.77-9.96-1.41c-2.99-0.55-5.77-1.34-8.72-2.18
		c-0.46-0.12-0.92-0.26-1.39-0.38c-1.05-0.3-2.11-0.59-3.2-0.87c-2.16-0.55-4.35-0.81-6.46-1.07c-1.74-0.2-3.42-0.39-5.06-0.74
		c-0.72-0.16-1.42-0.34-2.12-0.57c-2.3-0.74-4.7-0.93-7.03-1.1c-1.1-0.09-2.18-0.18-3.2-0.31c-1.31-0.18-2.56-0.43-3.72-0.89
		c-2.04-0.81-4.26-1.14-6.44-1.43c0.24-0.5,0.45-0.99,0.64-1.46l0.37-0.91l0.09-0.5c0.05-0.31,0.09-0.62,0.15-0.91v-0.01
		c0.16-1.11,0.2-2.04,0.23-2.81l0.05-2.42c0.01-0.61,0.05-0.99,0.03-1c0.01-0.14,0.09-0.41,0.18-0.62c0.05-0.24,0.16-0.51,0.3-0.81
		c0.46-1.18,1.39-2.85,2.28-5.19c0.84-2.34,1.16-4.03,1.46-4.88c0.08-0.22,0.14-0.41,0.22-0.55l0.01-0.07
		c0.12-0.23,0.24-0.47,0.35-0.72c0.22-0.49,0.39-1.03,0.51-1.51c0.08-0.36,0.15-0.77,0.19-1.16c0.01-0.2,0.03-0.41,0.05-0.59v-0.46
		c-0.03-0.57-0.05-1.2-0.14-1.58l-0.11-0.65c-0.04-0.22-0.09-0.37-0.14-0.54c-0.08-0.34-0.16-0.7-0.26-0.97
		c-0.05-0.16-0.11-0.34-0.16-0.51c0.04-0.01,0.07-0.03,0.11-0.03c0.35-0.09,0.64-0.14,1.05-0.26l0.59-0.2
		c0.19-0.04,0.49-0.16,0.7-0.26c0.26-0.11,0.46-0.18,0.73-0.34c0.3-0.15,0.58-0.32,0.87-0.5c0.08-0.04,0.18-0.12,0.27-0.19
		c0.32,0.31,0.65,0.62,0.97,0.95c1.97,1.88,4.02,3.84,6.64,4.87c1.87,0.74,3.66,1.88,5.54,3.1c2.28,1.47,4.66,2.99,7.34,3.83
		c2.66,0.81,5.5,0.53,8.27,0.26c2.35-0.23,4.58-0.46,6.54-0.01c3.19,0.73,6.45,1.15,9.6,1.54c1.49,0.2,2.99,0.39,4.47,0.62
		c1.96,0.28,3.92,1.3,6,2.37c2.49,1.28,5.04,2.61,7.87,2.81c2.83,0.2,5.68-0.04,8.46-0.28c1.99-0.19,4.04-0.35,6.02-0.35h2.8
		c3.83,0.03,7.79,0.04,11.61-0.24c2.05-0.15,4.22,0.18,6.5,0.53c1.92,0.28,3.91,0.58,5.87,0.58c0.78,0,1.57-0.04,2.34-0.15
		c2.89-0.43,5.73-1.31,8.49-2.18c1.95-0.61,3.79-1.18,5.65-1.6c1.89-0.45,3.95-0.72,5.95-0.99c2.8-0.39,5.71-0.8,8.44-1.64
		c2.76-0.84,4.85-3.07,6.89-5.2c1.7-1.81,3.31-3.5,5.11-4.2c1.83-0.72,4.16-0.58,6.65-0.45c2.92,0.16,5.95,0.34,8.52-0.91
		c2.54-1.23,4.87-2.95,7.11-4.61c1.73-1.28,3.37-2.49,5.08-3.49c2.42-1.39,4.23-3.57,5.99-5.69c1.47-1.77,2.88-3.45,4.54-4.58
		c0.82-0.55,1.55-1.19,2.24-1.88l0.01-0.01c1.26-1.22,2.31-2.58,3.38-3.93c1.37-1.74,2.68-3.39,4.26-4.66
		c1.47-1.18,3.88-1.53,6.44-1.89c0.45-0.07,0.89-0.14,1.35-0.22h0.01c2.6-0.41,5.11-0.99,6.95-2.68c1.77-1.66,2.87-3.87,3.84-6.1
		v-0.01c0.16-0.36,0.3-0.7,0.46-1.07c0.93-2.19,1.8-4.26,3.16-5.72c2-2.15,3.66-4.53,5.27-6.83c1.07-1.51,2.16-3.07,3.33-4.52
		c1.18-1.49,3.47-2.37,5.89-3.3c2.04-0.8,4.15-1.61,5.77-2.89l0.01-0.01c0.68-0.51,1.27-1.1,1.74-1.8c0.3-0.41,0.54-0.84,0.77-1.26
		c0-0.01,0.01-0.01,0.01-0.03c1.11-1.97,1.85-4.16,2.57-6.29c0.73-2.16,1.43-4.2,2.46-5.96c2.34-4.07,4.46-8.41,6.61-12.86
		c1.38-2.84,2.45-5.87,3.5-8.79c0.55-1.54,1.14-3.14,1.73-4.68c1.01-2.61,0.93-5.43,0.85-8.19c-0.07-2.34-0.14-4.54,0.46-6.46
		c0.54-1.81,2.2-3.5,3.96-5.29c2.1-2.14,4.26-4.34,4.89-7.19c0.64-2.74-0.11-5.61-0.82-8.38c-0.62-2.37-1.2-4.6-0.91-6.56
		c0.24-1.65,0.81-3.3,1.46-5c0.01-0.01,0.01-0.01,0.03-0.01l0.7-0.16c0.19-0.04,0.35-0.05,0.5-0.08c0.26-0.01,0.42,0,0.5,0.04
		c0.04,0.01,0.08,0.03,0.11,0.07c0.03,0.01,0.03,0.01,0.04,0.03c0.03,0.03,0.04,0.04,0.07,0.05c0.03,0.03,0.05,0.04,0.07,0.05
		l0.11,0.08c0.08,0.04,0.07,0.04,0.39,0.22C703.91,397.78,704.93,398.3,705.98,398.76z M703.09,387.44c0.22-1.81,0.76-3.65,1.32-5.6
		c0.43-1.46,0.88-2.93,1.18-4.45h24.97c0.28,1.2,0.65,2.37,1.01,3.52c0.74,2.37,1.45,4.61,1.3,6.73c-0.08,1.27-0.12,2.54-0.15,3.81
		l-2.47,0.35c-1.22,0.16-2.35,0.39-3.24,0.59c-0.92,0.19-1.62,0.32-2.22,0.41c-0.31,0.04-0.57,0.07-0.84,0.08
		c-0.12,0-0.26,0.01-0.39,0.01c-0.11,0-0.26,0-0.42-0.01c-1.37-0.11-2.84-0.49-4.62-1.1l-1.55-0.55l-1.32-0.46
		c-1.03-0.35-2.14-0.72-3.26-1.03c-1.15-0.31-2.1-0.51-2.89-0.7c-0.82-0.2-1.66-0.47-2.54-0.77l-1.01-0.35l-0.62-0.18l-0.66-0.15
		L704,387.5c-0.23-0.03-0.47-0.04-0.69-0.05H703.09z M415.4,539.67c-1.62-0.93-2.97-2.43-4.33-4.1l-0.01-0.01
		c-0.24-0.31-0.47-0.61-0.73-0.93c-1.57-1.95-3.15-3.93-5.2-5.31c-2.83-1.95-5.56-4.18-8.18-6.31c-0.97-0.78-1.93-1.58-2.91-2.35
		c-1.6-1.28-3.3-2.43-4.96-3.54c-2.3-1.58-4.47-3.04-6.42-4.85c-1.78-1.65-3.19-3.7-4.66-5.87c-1.24-1.81-2.51-3.66-4.04-5.31
		l-1.08-1.15c-2.89-3.12-5.64-6.08-8.23-9.33c-2.24-2.83-4.2-5.72-6.27-8.79c-0.59-0.89-1.19-1.77-1.81-2.68
		c-1.16-1.7-2.49-3.33-3.77-4.88c-1.74-2.11-3.38-4.11-4.69-6.38c-0.85-1.47-1.78-2.95-2.66-4.35c-1.57-2.53-3.19-5.14-4.49-7.83
		c-0.92-1.89-0.96-4.31-0.96-6.84c-0.03-1.57-0.08-3.16-0.31-4.73c0.65,0.03,1.3-0.08,1.91-0.42c0.97-0.54,2-1.12,2.97-1.73
		c0.93-0.59,1.73-1.08,2.66-1.6l0.72-0.42c0.49-0.3,0.96-0.57,1.35-1.01c0.22-0.19,0.42-0.41,0.59-0.62
		c0.15-0.23,0.31-0.47,0.45-0.72c0.16-0.23,0.24-0.46,0.34-0.69c0.09-0.22,0.22-0.47,0.24-0.68c0.5-1.73,0.43-2.96,0.53-3.81
		c0.03-0.47,0.11-0.74,0.12-0.93c0.04-0.14,0.04-0.11,0-0.11c0,0,0,0,0-0.01v-0.01c0-0.01,0-0.01,0.01-0.01l0.07-0.05
		c0.2-0.11,0.41-0.2,0.59-0.3c0.39-0.19,0.74-0.35,1.12-0.49c0.37-0.11,0.82-0.2,1.45-0.35c0.61-0.16,1.3-0.39,1.91-0.65
		c0.62-0.24,1.2-0.55,1.72-0.82c0.38-0.2,0.76-0.39,1.11-0.53c0.08,0.22,0.2,0.43,0.28,0.66c0.95,2.62,2.87,4.66,4.7,6.64
		c1.54,1.62,2.97,3.15,3.79,4.89c0.82,1.77,1.31,3.72,1.81,5.77c0.62,2.54,1.26,5.18,2.62,7.53c1.38,2.38,3.34,4.25,5.26,6.04
		c1.53,1.46,2.99,2.84,4.1,4.42c1.04,1.49,1.24,3.97,1.46,6.38c0.26,3.01,0.51,6.15,2.37,8.35c1.88,2.23,4.14,4.22,6.31,6.15
		c1.42,1.26,2.76,2.43,4,3.69c1.96,1.96,4.6,2.97,7.18,3.96c2.12,0.84,4.12,1.62,5.61,2.85c1.45,1.22,2.49,3.18,3.6,5.25
		c1.31,2.49,2.69,5.07,4.98,6.66c4.02,2.81,8.17,5.48,11.98,7.71c2.38,1.35,5.11,1.92,7.76,2.46c2.18,0.45,4.23,0.87,6.02,1.69
		c0.99,0.46,2,0.82,3.01,1.14c-0.05,0.03-0.11,0.04-0.18,0.08c-0.43,0.26-0.96,0.58-1.42,0.91c-0.49,0.32-0.92,0.65-1.34,0.99
		l-0.59,0.46c-0.04,0.03-0.11,0.07-0.15,0.09c-0.08,0.01-0.09,0.01-0.08-0.03c0.08-0.04-0.12-0.07-1.57,0.12
		c-0.69,0.09-1.55,0.28-2.41,0.65c-0.43,0.15-0.8,0.37-1.2,0.57c-0.35,0.22-0.72,0.45-1.03,0.68l-0.46,0.35l-0.39,0.31l-0.51,0.43
		l-1.04,0.87l-1.99,1.72l-2,1.68c-0.84,0.76-1.42,1.57-1.87,2.31c-0.43,0.72-0.74,1.39-0.97,1.95c-0.3,0.76-0.53,1.37-0.7,1.84
		l-1.54,0.11c-0.5,0.04-1.04,0.08-1.68,0.16c-0.64,0.08-1.41,0.23-2.34,0.54c-0.2,0.05-0.53,0.18-0.78,0.3
		c-0.27,0.14-0.51,0.23-0.81,0.39c-0.32,0.19-0.66,0.41-0.97,0.64c-0.16,0.11-0.3,0.19-0.47,0.35c-0.07,0.07-0.15,0.12-0.2,0.19
		c-0.11,0.11-0.2,0.2-0.31,0.3c-0.24,0.26-0.46,0.53-0.69,0.8C416.2,540.03,415.78,539.9,415.4,539.67z M292.38,380.44
		c0.16-1,0.34-2.01,0.47-3.04h26.97c0.42,1.47,1.03,2.89,1.65,4.29c0.91,2.14,1.77,4.14,1.92,6.1c0.12,1.72,0.19,3.45,0.24,5.11
		c0.12,2.92,0.22,5.95,0.68,8.99c0.28,1.84,0.45,3.73,0.61,5.54c0.24,2.8,0.51,5.68,1.16,8.53c1.15,5.11,2.2,9.4,3.54,13.76
		c0.82,2.68,2.23,5.02,3.58,7.27c1.1,1.84,2.14,3.57,2.87,5.45c0.73,1.85,0.76,4.08,0.78,6.44c0.03,2.78,0.05,5.64,1.28,8.17
		c1.37,2.85,3.03,5.53,4.65,8.11c0.87,1.39,1.77,2.84,2.6,4.29c1.45,2.47,3.24,4.68,4.99,6.79c1.24,1.51,2.51,3.07,3.62,4.66
		c0.59,0.88,1.19,1.78,1.8,2.66c2,2.97,4.07,6.07,6.39,8.99c2.68,3.35,5.58,6.46,8.41,9.49l1.07,1.16c1.38,1.47,2.53,3.16,3.74,4.95
		c1.53,2.22,3.1,4.5,5.14,6.39c2.1,1.96,4.49,3.57,6.79,5.14c1.6,1.08,3.26,2.2,4.77,3.39c0.96,0.78,1.92,1.55,2.87,2.34
		c0.68,0.55,1.35,1.1,2.04,1.65c2.04,1.65,4.15,3.3,6.38,4.81c1.65,1.14,3.03,2.87,4.49,4.7c1.74,2.15,3.53,4.39,5.95,5.8
		c0.47,0.26,0.95,0.45,1.45,0.61c-0.01,0.08-0.04,0.15-0.07,0.23c-0.04,0.2-0.09,0.41-0.12,0.62c-0.04,0.2-0.07,0.42-0.08,0.57
		c-0.11,1.32,0.01,2.31,0.11,3.04c0.14,0.77,0.27,1.37,0.42,1.92c0.23,0.92,0.45,1.65,0.59,2.24c-0.11,0.2-0.2,0.39-0.3,0.58
		c-0.53,1.18-0.91,2.19-1.22,3.01c-0.3,0.84-0.57,1.45-0.8,1.91c-0.43,0.88-1.3,2.18-2.34,4.08c-0.26,0.49-0.53,1-0.77,1.55
		c-0.28,0.59-0.5,1.12-0.74,1.83c-0.55,1.64-0.77,2.99-0.92,4.1l-0.32,2.76c-0.03,0.15-0.04,0.26-0.07,0.39
		c-0.14,0.22-0.24,0.41-0.35,0.51l-0.59,0.62c-0.16-0.11-0.32-0.22-0.49-0.31c-1.31-0.87-2.65-1.7-4.02-2.46
		c-1.53-0.84-3.12-1.66-4.68-2.45c-2.61-1.34-5.3-2.7-7.73-4.26c-1.12-0.7-2.2-1.39-3.35-2.05h-0.08c-0.53-0.31-1.08-0.61-1.61-0.91
		c-2.42-1.37-4.91-2.76-7.08-4.37c-2.03-1.46-3.83-3.29-5.72-5.22c-1.49-1.5-3.03-3.07-4.68-4.42l-0.01-0.01
		c-1.84-1.51-4.03-2.61-6.15-3.68c-2.3-1.16-4.49-2.24-6.14-3.8c-1.31-1.23-1.57-4.08-1.83-6.85c-0.19-1.88-0.35-3.81-0.89-5.49
		c-0.35-1.18-0.85-2.23-1.66-3.07c-1.66-1.78-3.74-3.07-5.76-4.3c-2.12-1.28-4.12-2.53-5.52-4.22c-1.28-1.54-2.65-3-3.99-4.42
		c-1.84-1.93-3.72-3.93-5.27-6.08l-1.95-2.65c-2.08-2.83-4.26-5.77-6.15-8.76c-0.93-1.47-1.72-3.01-2.47-4.62
		c-0.37-0.77-0.72-1.55-1.08-2.37c-0.27-0.61-0.57-1.22-0.85-1.84c-0.57-1.26-1.16-2.5-1.84-3.72c-0.31-0.55-0.64-1.12-0.99-1.65
		c0,0,0-0.01-0.01-0.01c-0.85-1.34-1.81-2.61-2.76-3.84c-1.55-2.08-3.04-4.04-4.06-6.23c-0.3-0.61-0.53-1.24-0.72-1.91
		c-0.49-1.55-0.77-3.23-1.07-5c-0.38-2.27-0.77-4.62-1.64-6.83c-0.05-0.14-0.11-0.26-0.15-0.41c-0.68-1.92-0.74-4.11-0.82-6.41
		c-0.08-2.38-0.18-4.84-0.92-7.18c-0.46-1.39-0.99-2.72-1.55-4.02c-0.26-0.61-0.53-1.2-0.78-1.8c-1.05-2.38-2.04-4.61-2.66-7.06
		c-0.95-3.69-1.62-7.29-2.34-11.1l-0.45-2.41c-0.51-2.7-2.74-4.91-4.91-7.06c-1.89-1.88-3.85-3.83-4.1-5.68
		c-0.23-1.88,0.97-4.14,2.26-6.52c1.38-2.6,2.83-5.27,2.65-8.02C291.57,385.21,291.96,382.9,292.38,380.44z M384.5,414.49
		c-0.08,0.08-0.14,0.15-0.22,0.19c-0.08,0.11-0.27,0.15-0.38,0.24c-0.19,0.05-0.39,0.16-0.58,0.22c-0.36,0.14-0.69,0.16-1.05,0.16
		c-0.37,0-0.77-0.07-1.32-0.15c-0.57-0.09-1.28-0.19-2.03-0.14c-0.76,0.04-1.47,0.26-2.14,0.5c-0.72,0.3-1,0.45-1.43,0.59
		c-0.85,0.3-1.42,0.3-2.74,0.41c-0.64,0.05-1.37,0.19-2,0.41c-0.66,0.2-1.24,0.46-1.83,0.73c-0.57,0.28-1.16,0.62-1.72,1.04
		c-0.59,0.42-1.12,0.95-1.53,1.41c-0.42,0.46-0.69,0.76-0.96,0.99c-0.28,0.23-0.57,0.43-0.93,0.62c-0.35,0.19-0.78,0.39-1.18,0.54
		c-0.41,0.16-0.76,0.26-1.14,0.31c-0.23,0.05-0.51,0.08-0.82,0.12c-0.07-0.16-0.15-0.34-0.23-0.49c-1.14-2.37-2.33-4.8-2.97-7.25
		c-0.54-2.03-0.18-4.38,0.22-6.88c0.36-2.41,0.76-4.91,0.32-7.33c-0.19-1.11-0.39-2.24-0.61-3.35c-0.64-3.42-1.24-6.66-1.53-10.09
		c-0.2-2.34-1.05-4.58-1.87-6.75c-0.41-1.08-0.8-2.14-1.1-3.16h28.93c0.15,3.57,0.46,6.92,0.76,9.84c0.15,1.3,0.24,2.6,0.35,3.89
		c0.26,3.15,0.53,6.38,1.22,9.61c0.39,1.87,0.26,3.91,0.11,6.07C383.94,409.37,383.77,412.01,384.5,414.49z M609.71,485.33
		c0.12,0.37,0.27,0.7,0.45,1.04c0.18,0.32,0.36,0.64,0.57,0.91c0.19,0.28,0.41,0.55,0.68,0.82c0.12,0.14,0.26,0.26,0.38,0.39
		l0.46,0.38c0.61,0.49,1.38,0.85,2.11,1.11c0.69,0.22,1.39,0.35,1.95,0.38c0.58,0.07,0.99,0.08,1.37,0.12
		c0.16,0.01,0.31,0.04,0.42,0.07c-0.05,0.04-0.11,0.08-0.18,0.11c-1.87,1.11-3.79,2.24-5.48,3.65c-1.95,1.65-4.15,2.91-6.5,4.24
		c-1.7,0.96-3.45,1.96-5.1,3.11c-1.76,1.23-3.34,2.73-4.87,4.16c-1.89,1.78-3.68,3.47-5.75,4.68c-1.66,0.96-3.29,2.05-4.84,3.12
		c-2.23,1.51-4.54,3.1-6.94,4.22c-1.96,0.92-4.33,1.05-6.84,1.23c-2.37,0.14-4.81,0.3-7.06,1.12c-4.85,1.77-8.98,3.08-12.95,4.15
		c-3.23,0.87-6.45,1.38-9.84,1.95c-1.16,0.19-2.34,0.39-3.5,0.58c-2.2,0.38-4.29,1.19-6.31,1.96c-2.39,0.92-4.64,1.78-6.96,1.97
		l-0.82,0.08c-4.22,0.36-8.6,0.76-12.92,0.76c-2.42,0-4.81-0.59-7.34-1.19c-2.04-0.49-4.15-1-6.27-1.18
		c-2.53-0.23-4.93-0.92-7.48-1.64c-1.88-0.54-3.81-1.1-5.81-1.45c-0.88-0.16-1.77-0.2-2.66-0.2c-1.5,0-2.99,0.16-4.46,0.34
		c-2.46,0.27-4.8,0.53-6.87-0.03c-2.26-0.59-4.35-1.84-6.56-3.14c-1.85-1.1-3.79-2.22-5.87-2.99c-0.09-0.03-0.2-0.05-0.28-0.09
		c0-0.03,0.01-0.08,0.01-0.12c0.03-0.19,0.03-0.32,0.04-0.49v-0.42l0.01-1.08c0.09-0.01,0.16-0.01,0.27-0.01
		c0.69-0.04,1.51-0.03,2.45-0.01c0.96-0.01,1.99,0.01,3.39-0.24c0.31-0.04,0.78-0.2,1.15-0.31c0.2-0.05,0.45-0.18,0.68-0.28
		c0.24-0.12,0.47-0.24,0.7-0.37c0.26-0.18,0.5-0.38,0.74-0.59c0.12-0.09,0.23-0.2,0.34-0.32c0.12-0.09,0.24-0.28,0.37-0.41
		c0.24-0.32,0.39-0.62,0.54-0.95c0.15-0.3,0.24-0.58,0.32-0.87c0.27-1.07,0.23-1.83,0.18-2.47c-0.05-0.66-0.16-1.22-0.27-1.72
		c-0.23-1.01-0.5-1.89-0.74-2.72c-0.23-0.81-0.47-1.58-0.59-2.22c-0.03-0.11-0.04-0.2-0.07-0.3c0.55-0.12,1.26-0.2,2-0.26
		c0.84-0.08,1.76-0.14,2.77-0.28c0.51-0.08,1.04-0.16,1.66-0.35c0.61-0.16,1.32-0.45,2.08-1.04c0.19-0.11,0.39-0.35,0.57-0.54
		c0.09-0.11,0.19-0.2,0.27-0.31l0.11-0.16l0.05-0.08c0.15-0.24,0.27-0.46,0.39-0.68c2.04,1.26,4.16,2.47,6.6,2.99
		c2.69,0.57,5.45,0.49,8.14,0.42c2-0.04,3.89-0.09,5.75,0.09c1.43,0.15,2.89,0.34,4.31,0.54c3.04,0.41,6.18,0.84,9.38,0.84
		c2.77,0,5.37-0.84,7.88-1.66c1.96-0.65,3.79-1.24,5.64-1.45c1.88-0.18,3.77-0.08,5.77,0.01c2.61,0.14,5.3,0.28,7.98-0.28
		c1.87-0.39,3.92-0.28,6.11-0.18c2.69,0.14,5.48,0.28,8.06-0.57c2.64-0.85,4.93-2.46,7.17-4c1.7-1.2,3.31-2.34,5.03-3.1
		c1.68-0.74,3.47-1.3,5.35-1.88c2.61-0.81,5.31-1.64,7.73-3.03c2.38-1.39,4.33-3.38,6.21-5.3c1.45-1.47,2.78-2.87,4.31-3.95
		c2.68-1.95,5.1-4.22,7.42-6.42c0.92-0.87,1.85-1.73,2.78-2.57c0.11,0.23,0.2,0.49,0.27,0.76l0.27,1.18
		c0.11,0.49,0.3,1.05,0.53,1.58c0.23,0.55,0.53,1.04,0.82,1.5c0.16,0.23,0.31,0.43,0.47,0.64c0.07,0.11,0.18,0.23,0.31,0.36
		l0.37,0.38c0.23,0.26,0.55,0.46,0.85,0.69c0.3,0.2,0.66,0.35,0.99,0.5c0.68,0.24,1.37,0.41,1.95,0.45c1.18,0.09,2.08,0.01,2.7,0.07
		c0.65,0.04,0.81,0.18,0.89,0.28c0.07,0.07,0.38,0.54,0.39,0.73c0.04,0.22,0.03,0.58-0.07,1.45c-0.03,0.46-0.09,0.97-0.07,1.64
		C609.36,483.85,609.46,484.62,609.71,485.33z M472.02,494.34c-1.66-0.53-3.35-0.99-4.99-1.41c-2.74-0.72-5.31-1.39-7.77-2.49
		c-2.42-1.08-4.57-2.54-6.85-4.1c-1.45-0.99-2.96-2-4.53-2.92c-1.51-0.88-3.08-1.66-4.58-2.41c-2.51-1.27-4.89-2.47-7.08-4.07
		c-1.87-1.37-4.08-2.18-6.23-2.99c-2.37-0.88-4.6-1.72-6.19-3.15c-1.49-1.34-2.28-3.6-3.14-5.96c-0.84-2.35-1.69-4.77-3.34-6.58
		c-1.16-1.3-2.38-2.51-3.58-3.68c-2-1.99-3.88-3.88-5.49-6.08c-1.87-2.56-3.37-5.25-4.93-8.1c-0.61-1.11-1.23-2.23-1.87-3.33
		c-1.12-1.92-2.62-3.57-4.08-5.16c-1.7-1.84-3.31-3.6-4.22-5.65c-0.65-1.42-1.37-2.87-2.04-4.27c-1.16-2.34-2.33-4.75-3.2-7.18
		c0.15-0.51,0.26-0.99,0.34-1.43c0.16-1.14,0.31-2.04,0.65-2.56c0.15-0.27,0.38-0.47,0.68-0.66c0.35-0.19,0.74-0.39,1.11-0.46
		c0.38-0.07,0.74-0.08,1.2-0.04c0.45,0.04,0.99,0.16,1.61,0.26c0.61,0.08,1.31,0.08,1.99-0.05c0.68-0.12,1.28-0.41,1.84-0.69
		c0.54-0.3,1.05-0.65,1.53-1.1c0.47-0.43,0.89-0.96,1.19-1.45c0.61-1.04,1-1.76,1.76-2.33c0.37-0.27,0.84-0.58,1.18-0.7
		c0.37-0.14,0.76-0.2,1.18-0.11c0.88,0.12,1.8,0.69,2.78,1.2c0.51,0.24,1.01,0.5,1.6,0.66c0.58,0.18,1.24,0.27,1.89,0.12
		c0.28-0.04,0.53-0.15,0.78-0.27c0.03,0.42,0.05,0.82,0.07,1.26c0.14,2.7,0.27,5.52,1.34,8.07c1.08,2.6,3.03,4.65,4.91,6.64
		c1.43,1.49,2.78,2.92,3.69,4.49c2.14,3.73,4.61,6.92,7.22,10.32l0.59,0.8c1.14,1.45,1.96,3.19,2.84,5.04
		c1.15,2.43,2.37,4.96,4.33,6.92c2,2,4.46,3.38,6.85,4.72c1.7,0.96,3.31,1.85,4.73,2.95c1.39,1.1,2.66,2.37,4.03,3.73
		c1.93,1.95,3.95,3.96,6.42,5.39c2.43,1.39,5.15,2.03,7.79,2.65c1.93,0.45,3.76,0.88,5.45,1.58c1.55,0.65,3.07,1.45,4.65,2.3
		c2.46,1.32,5.03,2.68,7.85,3.43c0.27,0.08,0.55,0.19,0.84,0.27c-0.15,0.39-0.26,0.82-0.42,1.2l-0.26,0.61
		c-0.09,0.22-0.18,0.43-0.27,0.65c-0.15,0.45-0.3,0.87-0.42,1.31c-0.53,1.72-0.93,3.38-1.57,4.75c-0.31,0.73-0.61,1.15-1.1,1.73
		c-0.5,0.53-1.08,1.05-1.72,1.65c-0.65,0.58-1.34,1.19-2.01,1.93c-0.34,0.39-0.68,0.78-0.99,1.27c-0.32,0.46-0.55,0.91-0.8,1.35
		c-0.5,1.03-0.89,2.01-1.26,2.92C473.33,494.85,472.7,494.57,472.02,494.34z M596.68,468.6c-0.99,0.89-1.96,1.81-2.92,2.72
		c-2.38,2.22-4.61,4.33-7.14,6.15c-1.72,1.27-3.23,2.8-4.69,4.29c-1.83,1.87-3.54,3.62-5.57,4.79c-2.1,1.22-4.52,1.96-7.07,2.76
		c-1.89,0.58-3.85,1.19-5.71,2.01c-1.97,0.88-3.79,2.15-5.56,3.38c-2.12,1.49-4.14,2.89-6.31,3.6c-2.05,0.66-4.45,0.55-6.96,0.42
		c-2.28-0.11-4.64-0.23-6.91,0.23c-2.27,0.5-4.64,0.37-7.15,0.24c-2.04-0.11-4.15-0.23-6.27,0c-2.18,0.23-4.26,0.91-6.27,1.57
		c-2.39,0.78-4.64,1.51-6.92,1.51c-2.99,0-6.02-0.41-8.95-0.81c-1.45-0.2-2.95-0.41-4.42-0.54c-1.14-0.14-2.26-0.16-3.39-0.16
		c-0.92,0-1.84,0.01-2.74,0.05c-2.64,0.07-5.1,0.12-7.44-0.37c-2.08-0.45-4.03-1.61-6.07-2.88c0.41-1.28,0.72-2.46,1.11-3.47
		c0.28-0.72,0.51-1.19,0.95-1.76c0.43-0.59,0.99-1.2,1.57-1.84c0.59-0.65,1.23-1.34,1.83-2.15c0.3-0.41,0.58-0.87,0.84-1.34
		c0.27-0.51,0.45-0.96,0.61-1.45c0.62-1.85,0.85-3.62,1.2-5.26c0.08-0.41,0.16-0.81,0.26-1.19c0.05-0.19,0.11-0.38,0.18-0.57
		l0.19-0.62c0.14-0.45,0.26-0.87,0.35-1.3c0.55,0.19,1.11,0.41,1.66,0.61c2.66,1.03,5.42,2.08,8.33,2.46
		c0.8,0.09,1.61,0.14,2.41,0.14c1.99,0,3.99-0.26,5.93-0.51c1.96-0.26,3.8-0.5,5.61-0.5c1.66,0,3.39,0.12,5.06,0.24
		c2.89,0.19,5.88,0.39,8.81,0.03c2.92-0.38,5.66-1.42,8.31-2.42c1.7-0.64,3.33-1.24,4.95-1.68c3.99-1.08,8.11-2.5,12.95-4.5
		c3.03-1.27,5.79-2.97,8.44-4.62c1.14-0.7,2.3-1.43,3.46-2.11c1.6-0.92,3.46-1.51,5.43-2.12c2.6-0.81,5.29-1.66,7.48-3.35
		c2.45-1.88,4.54-4.19,6.56-6.44c0.09,0.28,0.23,0.54,0.38,0.81c0.15,0.22,0.3,0.46,0.46,0.66l0.43,0.53
		c0.3,0.34,0.59,0.69,0.92,1.01c0.66,0.69,1.42,1.26,2,1.77c0.57,0.5,1.07,1.08,1.57,1.7c0.53,0.68,1.15,1.43,1.83,2.08
		c0.72,0.69,1.45,1.22,1.97,1.72c0.54,0.51,1.03,1.1,1.53,1.74c0.5,0.65,0.99,1.31,1.43,1.97c0.42,0.66,0.89,1.42,1.42,2.18
		c0.09,0.14,0.2,0.27,0.28,0.41C596.84,468.49,596.75,468.53,596.68,468.6z M487.08,459.57c-0.11,0.84-0.41,1.55-0.53,2.57
		c-0.11,0.95-0.03,1.87,0.07,2.74c0.19,1.73,0.47,3.42-0.04,4.73c-0.36,1.07-0.65,2.14-0.92,3.19c-0.3-0.11-0.59-0.22-0.91-0.31
		c-2.5-0.66-4.79-1.88-7.21-3.16c-1.6-0.85-3.23-1.73-4.93-2.43c-1.91-0.8-3.95-1.27-5.91-1.73c-2.53-0.59-4.92-1.15-6.95-2.33
		c-2.11-1.22-3.89-3-5.77-4.89c-1.37-1.37-2.77-2.78-4.34-3.99c-1.6-1.24-3.38-2.23-5.11-3.19c-2.3-1.3-4.47-2.51-6.16-4.2
		c-1.6-1.6-2.62-3.77-3.72-6.07c-0.91-1.92-1.85-3.89-3.16-5.62l-0.61-0.78c-2.56-3.3-4.95-6.42-7-9.95
		c-1.1-1.91-2.64-3.53-4.12-5.1c-1.76-1.87-3.43-3.62-4.3-5.68c-0.84-2.05-0.96-4.47-1.1-7.04c-0.04-0.88-0.09-1.78-0.18-2.68
		l2.15-1.15l1.41-0.77c0.5-0.3,0.97-0.59,1.37-1.01c0.84-0.82,1.16-1.95,1.58-2.91c0.23-0.47,0.5-0.93,0.87-1.34
		c0.35-0.39,0.81-0.68,1.28-0.97c-0.49,0.26-0.97,0.51-1.37,0.91c-0.41,0.38-0.72,0.84-0.97,1.32c-0.51,0.96-0.89,2-1.69,2.68
		c-0.38,0.35-0.82,0.59-1.31,0.82l-1.47,0.68l-1.92,0.88c-0.11-0.99-0.27-1.96-0.53-2.92c-0.46-1.74-1.1-3.43-1.7-5.1
		c-0.95-2.61-1.85-5.08-2.19-7.69c-0.2-1.51-0.47-3.06-0.73-4.54c-0.3-1.68-0.61-3.41-0.81-5.12h18.78
		c0.43,1.72,1.12,3.35,1.81,4.96c0.81,1.93,1.57,3.76,1.88,5.54c0.97,5.56,2.05,9.81,3.54,13.84c1.77,4.91,3.68,9.04,5.98,12.99
		c0.93,1.64,1.55,3.52,2.22,5.52c0.95,2.8,1.91,5.69,3.85,8c2.1,2.5,4.79,4.43,7.38,6.3c1.43,1.03,2.77,1.99,4.03,3.04
		c3.69,3.11,7.68,5.89,11.91,8.35c1.43,0.81,2.83,1.8,4.3,2.83c2.6,1.84,5.27,3.7,8.33,4.83c1.49,0.53,3.03,0.85,4.61,1.08
		c0.14,0.81,0.31,1.6,0.38,2.39C487.22,457.92,487.19,458.74,487.08,459.57z M408.96,395.81c0.61,1.66,1.19,3.26,1.62,4.85
		c0.3,1.1,0.43,2.26,0.53,3.46c-0.08,0.04-0.16,0.09-0.24,0.12c-0.22,0.07-0.43,0.15-0.65,0.15c-0.87,0.15-1.77-0.32-2.68-0.85
		c-0.91-0.51-1.8-1.23-3.08-1.54c-0.64-0.18-1.35-0.15-2.01,0.07c-0.69,0.2-1.15,0.47-1.69,0.82c-0.51,0.34-0.99,0.78-1.38,1.26
		c-0.39,0.5-0.69,0.99-0.99,1.38c-0.28,0.41-0.57,0.72-0.92,1c-0.34,0.27-0.74,0.5-1.16,0.7c-0.85,0.39-1.58,0.49-2.46,0.3
		c-0.46-0.08-0.97-0.23-1.6-0.35c-0.62-0.12-1.34-0.15-2.03-0.05c-0.7,0.09-1.32,0.32-1.95,0.62c-0.41,0.22-0.78,0.5-1.15,0.84
		c0.03-0.51,0.07-1.03,0.09-1.55c0.15-2.3,0.31-4.65-0.18-6.94c-0.64-3.03-0.89-6.03-1.15-9.22c-0.12-1.31-0.23-2.64-0.35-3.96
		c-0.31-2.97-0.61-6.14-0.74-9.52h20.22c0.2,1.92,0.53,3.81,0.87,5.66c0.26,1.51,0.53,2.96,0.7,4.41
		C406.98,390.42,407.98,393.16,408.96,395.81z M385.42,417.9c0.09-0.07,0.18-0.11,0.26-0.16c0.81,1.92,1.72,3.81,2.61,5.64
		c0.69,1.38,1.38,2.8,2,4.16c1.12,2.51,2.97,4.54,4.77,6.49c1.41,1.54,2.74,3,3.68,4.61c0.64,1.1,1.24,2.18,1.84,3.27
		c1.57,2.81,3.18,5.73,5.15,8.42c1.74,2.42,3.83,4.47,5.83,6.46c1.15,1.15,2.35,2.33,3.45,3.54c1.23,1.37,1.96,3.39,2.72,5.54
		c0.95,2.64,1.92,5.37,3.99,7.25c2.03,1.84,4.65,2.81,7.19,3.74c2.03,0.77,3.96,1.49,5.49,2.6c2.39,1.74,4.99,3.06,7.5,4.33
		c1.47,0.73,2.99,1.5,4.43,2.33c1.47,0.87,2.92,1.85,4.34,2.81c2.28,1.55,4.66,3.16,7.33,4.35c2.69,1.2,5.53,1.95,8.26,2.66
		c1.58,0.41,3.23,0.84,4.81,1.35c0.53,0.18,1.04,0.39,1.57,0.64c-0.05,0.08-0.08,0.14-0.14,0.19c0.05-0.08-0.01-0.03-0.27,0.01
		c-0.22,0.04-0.55,0.07-0.89,0.08c-0.7,0.04-1.53,0.01-2.42,0.01c-0.89,0-1.83-0.03-2.96,0.11c-0.28,0.04-0.61,0.11-0.91,0.16
		c-0.34,0.08-0.7,0.19-1.05,0.32c-0.2,0.09-0.42,0.19-0.62,0.3c-0.22,0.14-0.39,0.19-0.62,0.41c-0.46,0.38-0.88,0.73-1.23,1.34
		c-0.65,1.12-0.72,2.03-0.78,2.72c-0.04,0.73,0.03,1.3,0.08,1.87c0.12,1.08,0.31,2,0.47,2.85c0.14,0.73,0.27,1.42,0.35,2.03
		c-0.27-0.01-0.55-0.04-0.87-0.08c-0.78-0.08-1.69-0.18-2.74-0.23c-0.24-0.03-0.53-0.04-0.82-0.03c-0.3,0-0.58,0-0.95,0.04
		l-0.53,0.04c-0.16,0.01-0.38,0.07-0.59,0.09c-0.19,0.05-0.41,0.09-0.61,0.15c-0.24,0.08-0.49,0.18-0.73,0.27
		c-0.45,0.15-1.07,0.54-1.58,0.92c-0.05,0.05-0.14,0.11-0.16,0.15l-0.11,0.11l-0.23,0.2l-0.42,0.43c-0.28,0.31-0.57,0.66-0.82,1.03
		c-0.22,0.38-0.46,0.78-0.64,1.2c-0.38,0.84-0.53,1.65-0.66,2.35c-0.04,0.34-0.08,0.66-0.09,0.93c-1.55-0.38-3.03-0.81-4.42-1.46
		c-2.11-1-4.45-1.47-6.71-1.93c-2.51-0.51-4.88-1-6.81-2.11c-3.74-2.18-7.83-4.79-11.76-7.54c-1.69-1.18-2.81-3.31-4.02-5.6
		c-1.19-2.23-2.42-4.56-4.33-6.15c-1.89-1.57-4.23-2.47-6.52-3.37c-2.37-0.91-4.58-1.77-6.07-3.27c-1.32-1.31-2.77-2.58-4.16-3.81
		c-2.08-1.85-4.26-3.77-5.99-5.83c-1.22-1.45-1.42-3.96-1.65-6.62c-0.24-2.81-0.49-5.71-2.01-7.9c-1.3-1.84-2.92-3.39-4.5-4.89
		c-1.83-1.73-3.54-3.35-4.7-5.35c-1.14-1.96-1.7-4.27-2.28-6.71c-0.51-2.1-1.07-4.3-2.01-6.34c-1.03-2.2-2.7-3.99-4.34-5.72
		c-1.7-1.83-3.33-3.56-4.06-5.56c-0.04-0.12-0.09-0.23-0.14-0.31c0.64-0.19,1.26-0.41,1.83-0.66c0.58-0.28,1.12-0.58,1.7-0.95
		c0.58-0.35,1.16-0.81,1.66-1.31c0.53-0.51,0.95-1.05,1.23-1.42c0.3-0.39,0.51-0.62,0.8-0.87c0.28-0.26,0.61-0.49,1-0.7
		c0.39-0.23,0.8-0.43,1.16-0.58c0.39-0.14,0.73-0.24,1.16-0.32c0.42-0.07,1-0.11,1.66-0.24c0.68-0.14,1.35-0.35,1.96-0.59
		c0.58-0.24,1.24-0.61,1.51-0.74c0.35-0.15,0.68-0.28,1-0.32c0.32-0.05,0.7-0.04,1.22,0.01c0.5,0.04,1.18,0.12,1.91,0.07
		c0.73-0.05,1.47-0.2,2.11-0.49C384.85,418.2,385.12,418.04,385.42,417.9z M354.18,397.97c0.2,1.1,0.41,2.2,0.61,3.31
		c0.34,1.92,0.01,4.06-0.35,6.31c-0.42,2.7-0.87,5.49-0.15,8.15c0.72,2.66,1.91,5.16,3.1,7.6c-0.47,0.18-0.93,0.34-1.37,0.54
		c-0.47,0.2-0.85,0.37-1.26,0.5c-0.39,0.15-0.74,0.22-1.2,0.3c-0.42,0.09-1.04,0.18-1.72,0.35c-0.68,0.16-1.34,0.39-1.93,0.64
		c-0.31,0.12-0.59,0.24-0.89,0.39l-0.09,0.04l-0.18,0.09l-0.34,0.2c-0.22,0.14-0.45,0.27-0.65,0.46c-0.87,0.69-1.49,1.65-1.83,2.53
		c-0.32,0.82-0.49,1.64-0.58,2.24c-0.16,1.28-0.28,2.23-0.45,2.58c-0.09,0.16-0.09,0.14-0.05,0.04c0.04-0.01,0.03-0.04,0.03-0.05
		l-0.69,0.34c-1.01,0.47-2.11,1.04-3.03,1.55c-0.91,0.46-1.81,0.91-2.76,1.34c-0.07,0.04-0.14,0.08-0.2,0.11
		c-0.28,0.16-0.53,0.35-0.74,0.57c-0.5-0.93-1.05-1.83-1.57-2.7c-1.32-2.22-2.56-4.3-3.29-6.61c-1.31-4.26-2.34-8.49-3.49-13.52
		c-0.61-2.66-0.84-5.31-1.08-8.12c-0.18-1.87-0.34-3.8-0.64-5.75c-0.42-2.85-0.54-5.65-0.64-8.63c-0.07-1.69-0.14-3.46-0.27-5.25
		c-0.18-2.47-1.19-4.81-2.16-7.08c-0.46-1.04-0.88-2.05-1.23-3.06h26.42c0.36,1.45,0.89,2.85,1.41,4.25
		c0.78,2.07,1.51,4.03,1.68,5.92C352.9,391.15,353.54,394.61,354.18,397.97z M701.43,380.95c-0.66,2.23-1.34,4.53-1.51,6.85
		c-0.16,0.04-0.32,0.07-0.49,0.12c-0.32,0.11-0.66,0.23-0.93,0.32l-0.73,0.3c-0.87,0.38-1.18,0.5-1.39,0.58
		c-0.05,0-0.11,0.03-0.19,0.03h-0.26c-0.11-0.03-0.22-0.04-0.32-0.05c-0.05-0.03,0.07,0.08,0.01,0.07
		c-0.11,0.05-0.68-0.42-1.23-1.12c-0.59-0.69-1.26-1.61-2.28-2.64c-0.54-0.51-1.14-1.07-2.08-1.53c-0.23-0.14-0.49-0.23-0.74-0.32
		c-0.24-0.08-0.54-0.18-0.7-0.19c-0.39-0.09-0.78-0.15-1.14-0.18c-1.49-0.12-2.72,0.08-3.77,0.28c-1.07,0.2-1.97,0.41-2.73,0.51
		c-0.19,0.03-0.38,0.04-0.54,0.05h-0.23l-0.12,0.01l-0.2-0.01c-0.53-0.03-1.07-0.05-1.61-0.07c-2.12-0.05-4.22,0.07-6.27,0.26
		c-0.27,0.04-0.55,0.04-0.84,0.04c-0.23-1.5-0.62-3-1.01-4.45c-0.22-0.84-0.45-1.64-0.64-2.43h32.93
		C702.14,378.56,701.79,379.74,701.43,380.95z M669.59,410.55c0.95-2.76,1.89-5.6,2.39-8.5c0.49-2.68,0.09-5.42-0.27-8.1
		c-0.28-2.05-0.54-4-0.45-5.85c0.26,0.03,0.5,0.09,0.76,0.09c1.95,0.12,3.85,0.34,5.72,0.69c0.47,0.09,0.93,0.19,1.39,0.3l0.18,0.03
		l0.26,0.05c0.18,0.03,0.35,0.07,0.53,0.08c0.32,0.04,0.65,0.05,0.96,0.07c1.24,0.05,2.33-0.04,3.26-0.05
		c0.93-0.03,1.72,0.03,2.22,0.18c0.14,0.04,0.24,0.08,0.34,0.14c0.08,0.03,0.03,0.04,0,0.04s-0.05-0.03-0.05,0
		c-0.04,0,0.07,0.16,0.22,0.36c0.31,0.46,0.74,1.26,1.3,2.2c0.58,0.93,1.2,2.12,2.76,3.35c0.34,0.27,0.92,0.59,1.31,0.81
		c0.35,0.15,0.72,0.31,1.08,0.47c0.38,0.14,0.8,0.24,1.2,0.35c0.41,0.11,0.87,0.16,1.3,0.22c0.34,0.04,0.66,0.03,0.99,0.03
		c-0.46,1.31-0.85,2.65-1.05,4.04c-0.39,2.58,0.3,5.23,0.97,7.8c0.66,2.51,1.27,4.91,0.81,6.92c-0.45,1.97-2.22,3.77-4.08,5.68
		c-1.93,1.97-3.93,4.02-4.72,6.57c-0.76,2.39-0.68,4.98-0.59,7.48c0.08,2.54,0.14,4.95-0.64,6.95c-0.62,1.58-1.22,3.19-1.77,4.76
		c-1.01,2.87-2.07,5.8-3.37,8.49c-2.12,4.39-4.22,8.68-6.52,12.65c-1.16,2.01-1.95,4.3-2.7,6.52c-0.84,2.5-1.65,4.88-2.97,6.81
		c-1.1,1.62-3.53,2.56-6.08,3.54c-2.7,1.05-5.52,2.14-7.21,4.27c-1.23,1.53-2.34,3.12-3.43,4.66c-1.62,2.33-3.16,4.52-5.02,6.52
		c-1.73,1.84-2.76,4.27-3.74,6.62c-1.01,2.38-1.97,4.64-3.56,6.1c-1.43,1.32-3.96,1.7-6.65,2.1c-2.84,0.42-5.79,0.84-7.92,2.54
		c-1.87,1.5-3.34,3.37-4.76,5.19c-1.57,1.99-3.04,3.87-4.93,5.16c-2.03,1.38-3.64,3.3-5.19,5.16c-0.54,0.65-1.08,1.3-1.62,1.91
		c-1.11,1.24-2.23,2.33-3.53,3.08c-1.88,1.08-3.65,2.39-5.38,3.68c-2.14,1.57-4.33,3.2-6.62,4.31c-1.84,0.88-4.34,0.74-6.98,0.59
		c-0.73-0.04-1.46-0.08-2.2-0.08h-0.01c-2-0.07-3.96,0.03-5.75,0.73c-1.55,0.61-2.88,1.64-4.14,2.84l-0.01,0.01
		c-0.72,0.68-1.42,1.39-2.1,2.11c-1.83,1.93-3.57,3.77-5.54,4.39c-2.49,0.76-5.26,1.15-7.95,1.5c-2.05,0.3-4.18,0.59-6.21,1.04
		c-1.97,0.46-3.96,1.08-5.89,1.68c-2.64,0.81-5.35,1.66-8,2.05c-2.26,0.34-4.7-0.04-7.3-0.43c-1.93-0.3-3.92-0.59-5.91-0.59
		c-0.43,0-0.87,0.01-1.28,0.04c-3.72,0.27-7.61,0.26-11.37,0.24c-0.93-0.01-1.88-0.01-2.81-0.01c-2.11,0-4.25,0.2-6.29,0.37
		c-2.77,0.24-5.39,0.49-7.95,0.28c-2.2-0.15-4.38-1.28-6.68-2.46c-0.65-0.34-1.3-0.68-1.96-0.99h-0.01l-0.01-0.01
		c-1.6-0.77-3.23-1.43-4.98-1.69c-1.54-0.23-3.04-0.42-4.54-0.61c-3.22-0.42-6.26-0.81-9.31-1.5c-1.58-0.36-3.2-0.39-4.83-0.28
		h-0.01c-0.91,0.04-1.8,0.14-2.69,0.22c-2.58,0.27-5,0.5-7.07-0.12c-2.26-0.7-4.35-2.05-6.56-3.47c-1.46-0.92-2.93-1.88-4.52-2.66
		c-0.01-0.01-0.03-0.01-0.04-0.03c-0.51-0.24-1.03-0.47-1.55-0.68c-2.04-0.8-3.77-2.47-5.61-4.24c-0.32-0.31-0.65-0.61-0.99-0.92
		c0.35-0.53,0.65-1.04,0.87-1.5c0.34-0.7,0.57-1.35,0.72-1.89c0.32-1.08,0.53-1.91,0.65-2.38c0.07-0.27,0.12-0.37,0.11-0.41
		c-0.01,0-0.09,0.09-0.3,0.26l1.83-1.85l1.78-1.87l0.87-0.88l0.45-0.45l0.11-0.09c0.01-0.03,0.03-0.04,0.04-0.07
		c0.04-0.04,0.04-0.04,0.04-0.07c-0.01,0.01-0.03-0.01-0.04-0.01c-0.07,0-0.09-0.01,0.07-0.08c0.14-0.05,0.58-0.09,1.22-0.23
		c0.61-0.12,1.47-0.32,2.28-0.69c0.82-0.34,1.55-0.81,2.19-1.3c0.3-0.23,0.58-0.47,0.85-0.72l0.39-0.39
		c0.24-0.23,0.47-0.45,0.68-0.64c0.24-0.19,0.43-0.35,0.73-0.55c0.58-0.39,1.72-1.15,2.53-1.85c0.42-0.37,0.8-0.72,1.16-1.07
		c0.08-0.07,0.24-0.24,0.39-0.39l0.43-0.47c0.27-0.32,0.54-0.7,0.78-1.08c0.11-0.19,0.19-0.38,0.27-0.58
		c0.04,0.01,0.08,0.03,0.12,0.04c1.83,0.65,3.53,1.68,5.37,2.74c2.28,1.34,4.65,2.74,7.33,3.46c2.64,0.69,5.37,0.39,8.02,0.09
		c2.22-0.26,4.3-0.49,6.25-0.15c1.83,0.32,3.61,0.82,5.49,1.38c2.57,0.72,5.23,1.49,8.06,1.73c1.91,0.16,3.8,0.61,5.8,1.11
		c2.61,0.61,5.3,1.26,8.08,1.26c4.46,0,8.91-0.39,13.21-0.76l0.81-0.07c2.77-0.24,5.31-1.23,7.8-2.18c1.97-0.74,3.84-1.46,5.73-1.8
		c1.16-0.22,2.33-0.39,3.47-0.58c3.33-0.54,6.77-1.1,10.15-2c4.07-1.1,8.26-2.45,13.21-4.24c1.83-0.68,3.95-0.8,6.18-0.95
		c2.69-0.18,5.49-0.35,7.96-1.51c2.62-1.23,5.04-2.88,7.38-4.46c1.57-1.07,3.07-2.1,4.64-3c2.39-1.38,4.39-3.27,6.34-5.1
		c1.5-1.43,2.93-2.78,4.5-3.88c1.53-1.07,3.22-2.03,4.85-2.97c2.37-1.32,4.81-2.73,6.96-4.56c1.5-1.24,3.23-2.27,5.06-3.37
		c0.58-0.34,1.18-0.68,1.76-1.04c0.93,0.04,1.87-0.28,2.58-0.96c0.43-0.42,0.72-0.92,0.88-1.45c0.5-0.41,0.97-0.82,1.43-1.27
		c1.11-1.1,2.3-2.23,3.45-3.3c2.27-2.14,4.62-4.33,6.62-6.72c1.81-2.14,2.45-4.99,3.08-7.73c0.54-2.3,1.03-4.45,2.12-6
		c1.08-1.57,2.92-2.77,4.85-4.07c2.33-1.54,4.75-3.16,6.12-5.57c1.42-2.42,1.53-5.34,1.62-8.18c0.07-2.35,0.15-4.6,0.96-6.3
		c0.81-1.74,2.31-3.29,3.89-4.91c1.91-1.97,3.89-4,4.85-6.64c1.62-4.46,3.06-9,4.24-13.49C668.44,413.99,669,412.32,669.59,410.55z
		 M613.01,387.1c-0.61,4.61-1.74,9.22-2.78,13.13c-1.22,4.52-2.95,8.92-4.49,12.61c-1.74,4.23-3.73,8.27-5.91,12.02
		c-1.15,2-2.95,3.62-4.85,5.31c-1.5,1.37-3.08,2.78-4.35,4.43c-1.31,1.72-2.26,3.65-3.16,5.53c-0.92,1.93-1.84,3.73-3.06,5.23
		c-0.05-0.19-0.11-0.37-0.18-0.54c-0.14-0.22-0.24-0.46-0.41-0.68c-0.57-0.81-1.41-1.49-2.39-1.77c-0.96-0.31-1.91-0.26-2.76-0.23
		c-0.82,0.03-1.65,0.03-2.31-0.27c-0.7-0.3-1.31-0.87-1.72-1.53c-0.42-0.68-0.55-1.5-0.51-2.33c0.04-0.85,0.19-1.72,0.07-2.6
		c-0.08-0.88-0.47-1.7-1.05-2.34c0.54,0.69,0.84,1.51,0.85,2.37c0.03,0.82-0.19,1.65-0.28,2.53c-0.14,0.87-0.07,1.83,0.35,2.66
		c0.41,0.82,1.04,1.55,1.92,2.03c0.85,0.45,1.83,0.51,2.69,0.57c0.87,0.04,1.66,0.09,2.33,0.37c0.65,0.26,1.19,0.77,1.55,1.38
		c0.35,0.59,0.42,1.24,0.34,1.99c0,0.03-0.01,0.04-0.01,0.07c-0.85,0.89-1.66,1.78-2.47,2.66c-1.95,2.15-3.95,4.38-6.18,6.08
		c-1.77,1.37-4.07,2.1-6.52,2.85c-2.04,0.64-4.16,1.3-6.06,2.41c-1.2,0.69-2.41,1.43-3.54,2.16c-2.68,1.65-5.2,3.22-7.99,4.37
		c-4.72,1.96-8.71,3.35-12.56,4.38c-1.78,0.49-3.53,1.14-5.23,1.78c-2.61,0.97-5.07,1.91-7.64,2.23c-2.61,0.34-5.31,0.15-8.18-0.04
		c-1.73-0.12-3.51-0.24-5.29-0.24c-2.01,0-4.04,0.27-6.02,0.53c-2.65,0.34-5.16,0.68-7.53,0.38c-2.56-0.34-5.12-1.32-7.62-2.27
		c-0.72-0.28-1.46-0.54-2.19-0.82c0.19-1.14,0.37-2.26,0.62-3.33c0.28-0.99,0.24-2.03,0.12-2.93c-0.14-0.93-0.34-1.77-0.51-2.61
		c-0.18-0.82-0.32-1.65-0.31-2.42c0-0.72,0.26-1.66,0.28-2.57c0.03-0.89-0.01-1.81-0.2-2.69c-0.14-0.76-0.38-1.49-0.57-2.2
		c1.37,0.18,2.74,0.28,4.1,0.39c1.8,0.14,3.64,0.27,5.37,0.57c0.61,0.11,1.23,0.23,1.84,0.32c4.07,0.74,8.29,1.5,12.63,1.5
		c3.27,0,6.34-0.85,9.31-1.65c1.72-0.49,3.33-0.92,4.96-1.2c4.83-0.84,9.07-2.33,13.74-4.02c0.93-0.34,1.87-0.66,2.8-1
		c3.5-1.22,7.12-2.47,10.5-4.43c3.45-1.99,6.39-4.53,9.26-6.99c0.68-0.59,1.38-1.19,2.08-1.78c1.39-1.16,2.97-2.14,4.66-3.18
		c2.53-1.54,5.14-3.15,7.12-5.52c2.01-2.39,3.27-5.26,4.47-8.04c0.74-1.73,1.47-3.37,2.35-4.88c0.78-1.37,1.7-2.74,2.58-4.06
		c1.78-2.64,3.6-5.35,4.75-8.49c1.43-3.93,2.15-8.17,2.85-12.22c0.11-0.65,0.22-1.3,0.34-1.96c0.62-3.57,0.68-7.07,0.66-10.72h18.16
		c0.15,0.89,0.32,1.8,0.5,2.66C612.82,382.55,613.31,384.87,613.01,387.1z M757.59,391.2l-2.12,0.23c-0.11-0.09-0.2-0.19-0.3-0.27
		c-0.78-0.66-1.72-1.39-2.96-1.97c-0.32-0.16-0.66-0.31-1.03-0.43c-0.82-0.34-1.7-0.5-2.58-0.64c-0.41-0.05-0.81-0.07-1.22-0.08
		h-0.61l-0.3,0.01l-0.14,0.01c-0.61,0.05-1.22,0.12-1.93,0.24c-1.37,0.19-3.14,0.68-3.84,0.93l-0.97,0.34
		c-0.31,0.09-0.64,0.19-0.99,0.27l-1.77,0.46c-0.23,0.18-0.57,0.32-0.97,0.47c0.04-0.99,0.07-1.96,0.14-2.93
		c0.15-2.72-0.65-5.33-1.45-7.85c-0.27-0.88-0.54-1.73-0.77-2.6h24.54c0.12,1.22,0.28,2.43,0.45,3.6c0.34,2.38,0.64,4.62,0.53,6.64
		c-0.05,0.93-0.62,2.2-1.3,3.53L757.59,391.2z M435.49,372.25h-1.38l-1.18-1.34l-0.37-0.41l94.84-85.59l-1.2-1.2
		c-5.14-5.14-5.14-13.48,0-18.62l25.74,25.74c-5.14,5.14-13.48,5.14-18.62,0l-1.76-1.76l-94.54,81.83L435.49,372.25z M620.76,267.31
		c16.2,14.79,20.85,37.95,11.96,56.14c-15.53,31.82-60.92,24.83-61.67,22.09c-0.62-2.26,28.44-4.42,43.26-26.23
		C625.65,302.64,623.76,281.66,620.76,267.31z M606.04,321.62c-21.48,27.23-70.38,15.3-70.42,14.26
		c-0.03-0.88,35.65,5.8,58.92-15.18c13.92-12.56,18.21-30.38,19.78-42.34C615.62,285.78,618.19,306.21,606.04,321.62z
		 M704.52,262.72c-9.33-7.81-24.62-2.58-26.7-1.84c1.24-2.01,7.46-11.72,17.95-12.9c12.53-1.41,22.91,10.29,26.28,18.18
		c7.41,17.44-7.26,44.99-37.79,66.96c6.64-5.3,17.94-16.06,23.01-33.14C709.55,292.34,715.6,271.98,704.52,262.72z M752.38,325.77
		c4.39,8.88,0.22,19.31-7.83,22.55c-6.88,2.77-15.55-0.16-19.78-7.37c2.16,0.47,8.15,1.49,14.72-1.38
		C748.53,335.62,751.79,327.35,752.38,325.77z M712.34,218.99c12.29,2.53,19.13,16.91,20.71,20.25c9.8,20.58,0.18,41-1.38,44.18
		c4.92-16.36-1.1-33.32-13.34-40.96c-15.67-9.79-40.21-3.47-50.63,17.02C676.76,231.36,697.2,215.86,712.34,218.99z M575.2,218.99
		c22.98-38.77,32.62-45.79,39-49.18c11.96-6.35,21.52-5.35,24.86-4.14c3.68,1.32,6.45,3.73,6.45,3.73c2.18,1.89,3.31,3.73,3.57,4.16
		c0,0,0.99,1.74,1.65,3.77c3.43,10.37-1.74,20.35-4.14,24.86c-3.39,6.38-10.41,16.02-49.18,39c-17.97,10.64-30.78,17.06-35.56,31.58
		c-1.24,3.79-1.61,7.12-1.73,9.38c0.04,0.18,0.47,2.73-1.38,4.49c-1.49,1.41-3.8,1.7-5.75,0.69c-3.99-3.99-7.98-7.98-11.96-11.96
		c-4-4-7.99-7.99-11.98-11.98c-1.01-1.95-0.72-4.26,0.7-5.75c1.74-1.85,4.3-1.42,4.47-1.38c2.26-0.11,5.6-0.49,9.38-1.73
		C558.14,249.78,564.56,236.96,575.2,218.99z M504.67,121.2c6.72-9.15,21.09-15.45,34.16-11.73c5.93,1.68,10.09,5,12.44,7.25
		c-2.42-0.04-18.94,0.01-30.04,13.11c-9.91,11.71-11.48,29.12-3.8,43.83C498.37,158.82,494.73,134.73,504.67,121.2z M378.33,190.23
		c4.15-2.96,18.41-12.88,39-14.15c5.39-0.32,36.26-2.24,55.23,21.06c11.26,13.83,12.6,29.5,12.78,35.89
		c-4.54-10.21-13.92-26.12-31.62-34.35c-33.73-15.66-76.99,6.25-91.94,31.59c-7.67,12.98-14.49,38.04-14.84,39.34
		c-2.08,7.72-3.37,14.21-4.15,18.64C342.31,283.68,336.6,220.04,378.33,190.23z M269.6,302.41c2.78-14.82,21.89-27.4,45.22-31.07
		c-2.11,1.87-22.86,20.7-18.64,42.45c2.27,11.65,10.98,20.48,17.44,27.02c6.88,6.99,13.79,11.55,18.81,14.4
		C289.89,351.82,265.92,322.09,269.6,302.41z"/>
	<g>
		<polygon class="st0" points="435.49,372.25 434.71,372.92 434.11,372.25 		"/>
	</g>
</g>
</svg>
