<?xml version="1.0" encoding="utf-8"?>
<!-- Generator: Adobe Illustrator 26.0.1, SVG Export Plug-In . SVG Version: 6.00 Build 0)  -->
<svg version="1.1" id="Layer_1" xmlns="http://www.w3.org/2000/svg" xmlns:xlink="http://www.w3.org/1999/xlink" x="0px" y="0px"
	 viewBox="0 0 610.26 610.26" style="enable-background:new 0 0 610.26 610.26;" xml:space="preserve">
<style type="text/css">
	.st0{fill:#FFFFFF;}
</style>
<g>
	<path class="st0" d="M583.23,384.52c0.28,2.48,0.55,4.81,0.12,6.31c-0.25,0.84-2.5,2.73-3.84,3.86c-2.89,2.44-6.14,5.19-7.59,9.33
		c-1.16,3.31-1.36,6.67-1.52,9.64c-0.14,2.48-0.28,4.84-0.94,6.48c-1.47,3.55-1.56,7.25-1.64,10.51c-0.05,2.37-0.09,4.83-0.73,6.14
		c-1.16,2.39-2.08,4.84-3,7.2c-1.06,2.77-2.08,5.39-3.3,7.66c-0.8,0.62-3.41,1.45-5,1.95c-4.27,1.36-9.11,2.87-11.76,7.11
		c-1.58,2.5-2.7,5.03-3.81,7.47c-0.34,0.75-0.67,1.47-1,2.19c0,0.02-0.02,0.02-0.02,0.03c-0.78,1.64-1.56,3.19-2.5,4.52
		c-0.2,0.27-0.39,0.55-0.56,0.83c0,0.02-0.02,0.02-0.03,0.03c-1.67,2.64-2.66,5.53-3.52,8.08c-0.81,2.39-1.58,4.64-2.69,6
		c-2.2,2.77-4.61,5.37-7.19,8.16c-1.17,1.3-2.36,2.58-3.52,3.89c-1.14,1.25-3.22,2.33-5.42,3.48c-2.7,1.39-5.78,2.98-8.33,5.52
		c-2.56,2.56-4.14,5.64-5.53,8.36c-1.14,2.22-2.2,4.3-3.47,5.41c-2.81,2.53-4.52,5.77-6.02,8.64c-1.12,2.11-2.3,4.3-3.48,5.27
		c-0.91,0.7-3.5,1.12-5.59,1.45c-3.52,0.56-7.5,1.2-10.86,3.59c-1.06,0.77-2.92,1.2-4.97,1.61c-0.28,0.06-0.56,0.11-0.84,0.17
		c-2.23,0.45-4.69,0.95-7.06,1.95c-0.95,0.39-1.89,0.86-2.81,1.42c-3.58,2.23-5.58,5.73-7.37,8.83c-1.03,1.78-2.33,4.02-3.25,4.52
		c-1.59,0.89-3.94,1.31-6.42,1.78c-2.92,0.5-6.22,1.11-9.34,2.61c-2.22,1.08-4.75,1.81-7.44,2.58c-2.48,0.72-5.06,1.45-7.67,2.53
		c-4.2,1.75-6.72,5.47-8.94,8.75c-0.94,1.42-2.55,3.8-3.31,4.17c-2.67,0.92-5.62,1.59-8.72,2.31c-2.3,0.52-4.69,1.06-7.05,1.73
		c-1.44,0.42-3.86,0.09-6.2-0.2c-3.17-0.44-6.8-0.91-10.48-0.06c-1.8,0.41-4.14,0.17-6.64-0.05c-2.87-0.27-6.16-0.58-9.55,0.02
		c-1.66,0.27-3.27,0.56-4.89,0.86c-3.66,0.67-7.12,1.3-10.72,1.7c-4.78,0.53-8.25,3.89-11.31,6.84c-1.19,1.16-3.16,3.08-4.06,3.42
		c-1.03-0.05-3.39-1.34-4.98-2.22c-3.22-1.78-6.91-3.81-11.22-3.81c-3.16,0-6.08,0.55-8.89,1.05c-2.59,0.5-5.06,0.95-7.19,0.83
		c-2.77-0.16-5.61-0.66-8.61-1.2c-2.36-0.44-4.8-0.87-7.31-1.17c-3.22-0.36-6.39-0.06-9.19,0.22c-2.62,0.25-5.09,0.47-7.12,0.14
		c-1.27-0.2-3.27-1.72-5.03-3.06c-2.7-2.05-5.77-4.36-9.66-5.25c-2.39-0.53-4.78-1.56-7.33-2.64c-2.39-1-4.87-2.08-7.61-2.86
		c-4.89-1.39-9.58,0.83-13.73,2.8c-1.47,0.7-3.84,1.84-4.91,2c-0.98-0.56-2.59-2.58-3.69-3.97c-2.3-2.87-4.91-6.17-8.87-7.8
		c-1.83-0.77-3.64-1.8-5.5-2.92c0.09-0.05,0.19-0.09,0.3-0.17c0.31-0.23,0.62-0.45,0.92-0.69c0.61-0.45,1.17-1.03,1.7-1.61
		c0.27-0.28,0.53-0.61,0.78-0.91c0.23-0.3,0.42-0.59,0.61-0.91c0.2-0.31,0.39-0.62,0.58-0.94l0.25-0.48l0.12-0.22l0.05-0.11
		c0.25-0.59,0.52-1.19,0.77-1.86c0.25-0.66,0.5-1.37,0.7-2.14c0.22-0.75,0.39-1.55,0.5-2.23c0.13-0.7,0.2-1.19,0.23-1.53l0.05-0.52
		c0.02-0.22,0.08-0.52,0.25-1c0.09-0.22,0.2-0.45,0.28-0.7l0.27-0.55c0.17-0.34,0.2-0.48,0.75-1.16c0.33-0.42,0.89-1.14,1.45-1.97
		c0.25,0.03,0.52,0.08,0.77,0.11c2.62,0.34,5.11,0.67,7.3,1.55c1.27,0.48,2.56,0.81,3.89,1.05c1.7,0.3,3.45,0.44,5.16,0.56
		c2.58,0.2,5.05,0.37,7.28,1.11c0.23,0.08,0.5,0.16,0.73,0.22h0.02c2.75,0.81,5.53,1.14,8.25,1.45c2.42,0.28,4.72,0.56,6.98,1.14
		c1.41,0.36,2.8,0.73,4.14,1.12c0.36,0.09,0.73,0.2,1.09,0.3c3.33,0.94,6.76,1.89,10.37,2.59c3.98,0.75,7.76,1.19,11.78,1.64
		c1.37,0.17,2.77,0.33,4.2,0.5c2,0.27,4.27,2.42,6.47,4.5c2.73,2.61,5.58,5.33,9.01,5.56c2.12,0.12,4.28,0.39,6.56,0.69h0.02
		c0.05,0,0.09,0.02,0.12,0.02c3.27,0.41,6.61,0.84,9.92,0.84c3.17,0,6.33-0.67,9.39-1.31c2.08-0.44,4.03-0.84,5.95-1.05
		c0.41-0.05,0.81-0.08,1.22-0.11c3.37-0.2,6.25-2.61,9.01-4.92c2.2-1.86,4.48-3.77,6.56-4.03c4.31-0.53,8.28-1.3,12.48-2.12
		c1.11-0.22,2.25-0.44,3.39-0.66c2.22-0.42,4.75,0.12,7.45,0.72c3.12,0.69,6.36,1.39,9.48,0.59c2.22-0.56,4.59-0.94,6.89-1.3
		c3.08-0.48,6.25-0.98,9.28-1.97c0.27-0.08,0.52-0.17,0.77-0.23c1.23-0.41,2.48-0.78,3.72-1.17c3.72-1.16,7.55-2.36,11.17-3.8
		c0.91-0.37,1.81-0.73,2.72-1.12c4.11-1.7,8.19-3.62,12.14-5.5l0.23-0.11c2.12-1,4.56-1.56,7.14-2.16c3.02-0.69,6.14-1.42,8.89-2.94
		c3.02-1.64,4.36-5.41,5.69-9.03c1.05-2.91,2.14-5.91,3.86-7c3.52-2.23,6.64-4.56,9.98-7c1.03-0.78,2.08-1.55,3.14-2.33
		c1.81-1.33,4.39-1.84,7.11-2.41c3.19-0.66,6.48-1.33,8.97-3.41c1.81-1.48,4.11-2.55,6.53-3.66c2.83-1.31,5.73-2.66,8.05-4.83
		c0.91-0.86,1.83-1.7,2.77-2.58c3.11-2.89,6.33-5.87,9.23-8.95c2.28-2.42,4.31-5.19,6.3-7.84c1.31-1.75,2.64-3.58,4.02-5.2
		c2.17-2.64,2.14-6.53,2.12-10.3c-0.02-3.03-0.05-6.14,1.17-7.83c3.14-4.31,6-8.53,9.05-13.28c1.2-1.92,3.25-3.44,5.39-5.05
		c2.53-1.87,5.14-3.81,6.69-6.64c1.06-1.92,3.28-3.48,5.64-5.14c2.77-1.95,5.62-3.97,7.03-6.94c1.47-3.14,0.16-7.06-1.11-10.86
		c-1.05-3.05-2.09-6.19-1.36-8.06c0.81-2.08,2.72-3.87,4.72-5.8l0.05-0.05c2.06-1.97,4.17-4,5.34-6.55
		c0.16-0.36,0.31-0.72,0.44-1.09c0.7-2.22,1.78-4.37,2.91-6.64c1.37-2.75,2.81-5.59,3.59-8.66c0.8-3.16-0.14-6.47-1.05-9.7
		c-0.77-2.75-1.5-5.36-1.08-7.53c0.44-2.27,1.52-4.48,2.66-6.83c0.64-1.31,1.28-2.64,1.81-4.02h0.22c2.05,0.02,4.72-0.08,7.59-0.75
		c0.64-0.06,1.33-0.11,2.02-0.2c0.56-0.08,1.17-0.17,1.7-0.27c0.22,0.3,0.42,0.55,0.78,0.94c0.58,0.66,1.52,1.56,2.75,2.39h0.02
		c0.37,0.25,0.77,0.48,1.19,0.72c0.95,0.48,1.95,0.91,3.02,1.16c0.52,0.14,1.06,0.27,1.56,0.33c0.48,0.06,0.97,0.11,1.47,0.12
		l1.39,0.08l0.66,0.02c0,0,0,0,0,0.02c0.58,2.36,1.14,4.58,0.87,6.08c-0.39,2.37-1.3,4.89-2.27,7.55c-0.91,2.48-1.84,5.06-2.47,7.84
		C582.45,377.82,582.87,381.36,583.23,384.52z"/>
	<path class="st0" d="M180.86,547.71c-0.56,1.14-1.19,2.5-1.64,4.02c-0.17,0.59-0.31,1.12-0.42,1.59c-0.91,0.12-2.16,0.31-3.72,0.8
		l-0.81,0.28c-0.3,0.12-0.62,0.27-0.94,0.41c-0.64,0.31-1.22,0.58-1.89,1.05c-0.66,0.45-1.31,0.87-1.89,1.45
		c-0.61,0.53-1.17,1.16-1.69,1.77c-0.47,0.61-0.89,1.25-1.28,1.89l-0.55,1.02l-0.64,1.14l-1.19,2.06c-2.67-1.48-5.3-3.25-8.08-5.11
		c-1.75-1.19-3.53-2.39-5.33-3.53c-1.44-0.91-2.91-2.83-4.44-4.84c-1.86-2.47-3.95-5.27-6.89-7.33c-1.09-0.78-2.2-2.87-3.28-4.89
		c-1.56-2.94-3.33-6.25-6.42-8.72c-2.59-2.08-5.52-3.45-8.08-4.64c-2.3-1.08-4.47-2.09-5.92-3.39c-3.06-2.72-6.87-3.83-10.25-4.78
		c-2.12-0.62-4.55-1.31-5.33-2.09c-0.52-0.7-0.86-3.52-1.08-5.2c-0.5-4.02-1.06-8.56-4.16-12.03c-3.19-3.55-7.84-4.5-11.94-5.34
		c-1.64-0.33-4.33-0.87-5.09-1.42c-1.03-1.34-1.75-3.59-2.53-5.97c-0.95-2.94-2.05-6.27-4.11-9.19c-2.22-3.12-5.36-5.17-8.11-6.97
		c-2.02-1.31-4.08-2.66-4.84-3.89c-1.05-1.66-1.73-4.06-2.45-6.62c-0.8-2.81-1.67-5.98-3.3-8.89c-1.37-2.47-2.97-4.72-4.53-6.87
		c-1.69-2.36-3.3-4.58-4.36-6.8c-0.66-1.37-0.75-3.81-0.86-6.2c-0.11-3.23-0.25-6.87-1.7-10.36c-1.52-3.64-2.8-7.37-4.14-11.31
		c-0.42-1.25-0.86-2.52-1.3-3.77c-0.83-2.34-1.3-4.98-1.77-7.8c-0.45-2.53-0.92-5.19-1.69-7.87c-0.61-2.11-0.75-4.59-0.91-7.26
		c-0.16-2.75-0.33-5.62-1-8.62c-1.03-4.55-4.45-7.62-7.47-10.34c-1.27-1.14-3.39-3.05-3.66-3.81c-0.3-1.8,0.06-4.2,0.45-6.75
		c0.45-2.95,0.95-6.3,0.58-9.73c-0.34-3.06-1.16-5.87-1.97-8.59c-0.77-2.58-1.47-5.03-1.62-7.2c0.2-0.89,1.83-3.05,2.81-4.36
		c1.7-2.3,3.58-4.78,4.59-7.69h25.22c-0.14,0.95-0.31,1.92-0.48,2.91c-0.5,2.91-1.03,5.91-0.83,9.01c0.14,2.16-1.28,4.78-2.66,7.34
		c-0.91,1.67-1.81,3.41-2.41,5.14c-0.36,1.08-0.59,2.19-0.64,3.28v0.02c-0.02,0.42,0.02,0.81,0.06,1.23
		c0.42,3.39,3.14,6.08,5.78,8.7c2.09,2.06,4.27,4.23,4.64,6.25l0.52,2.77c0.84,4.47,1.64,8.69,2.75,13.06
		c0.77,3.02,1.97,5.77,3.16,8.42c0.03,0.09,0.06,0.19,0.11,0.28c0.97,2.17,1.87,4.22,2.59,6.39c0.72,2.22,0.78,4.7,0.89,7.3
		c0.11,3.03,0.2,6.16,1.37,9.08c0.22,0.58,0.42,1.17,0.59,1.78c0.48,1.69,0.78,3.52,1.09,5.41c0.28,1.67,0.58,3.39,1.02,5.06
		c0.33,1.31,0.75,2.61,1.33,3.84c1.36,2.86,3.27,5.37,5.09,7.83c1.5,2,2.92,3.91,4.05,5.92c1.09,1.98,2.06,4.12,2.98,6.19
		c0.58,1.28,1.16,2.56,1.78,3.84c0.78,1.59,1.59,3.17,2.56,4.69c2.27,3.56,4.8,7.01,7.26,10.33c0.75,1.02,1.48,2.03,2.23,3.05
		c1.94,2.66,4.19,5.06,6.37,7.37c1.5,1.59,3.05,3.23,4.45,4.94c2.02,2.41,4.69,4.06,7.28,5.66c2.22,1.34,4.31,2.64,5.91,4.34
		c0.34,0.36,0.62,0.84,0.86,1.39c0.69,1.66,0.92,4.06,1.12,6.39c0.36,3.84,0.73,7.86,3.25,10.2c2.28,2.16,5.16,3.59,7.94,4.97
		c2.39,1.2,4.64,2.33,6.44,3.81c0.22,0.19,0.45,0.38,0.66,0.58c1.53,1.31,2.97,2.78,4.48,4.33c2.2,2.22,4.47,4.53,7.05,6.41
		c1.64,1.2,3.37,2.28,5.16,3.31c1.12,0.66,2.27,1.31,3.39,1.95c1.89,1.05,3.84,2.16,5.66,3.31c2.97,1.89,6.16,3.52,9.25,5.09
		c1.75,0.91,3.58,1.81,5.31,2.78c1.53,0.84,3.05,1.8,4.58,2.81c-0.14,0.19-0.28,0.36-0.39,0.55c-0.41,0.59-0.77,1.17-1.11,1.73
		C181.47,546.58,181.14,547.13,180.86,547.71z"/>
	<path class="st0" d="M240.9,179.78c-6-20.45-29.5-27.51-31.39-28.04c-23.34-6.64-50.62,6.95-63.29,27.51
		c-18.29,29.72-0.2,64.38,4.78,73.93c14.72,28.17,39.4,40.65,48.4,44.68c-6.36-1.62-45.56-12.28-65.95-51.59
		c-3.67-7.08-18.3-37.37-7.31-73.4c2.48-8.16,11.06-34.81,38.17-51.06c8.78-5.28,27.75-14.39,51.59-11.17
		c6.66,0.89,39.03,5.27,50.53,30.84c0.81,1.83,11,25.43-2.66,41.5c-7.3,8.56-17.65,10.59-21.81,11.17
		C242.42,190.56,242.56,185.45,240.9,179.78z"/>
	<path class="st0" d="M235.19,326.7c0.3,1.3,0.55,2.64,0.81,3.95c0.78,3.98,1.61,8.11,3.37,11.78c1.75,3.66,4.42,6.76,7.01,9.76
		c0.97,1.11,1.89,2.17,2.73,3.27c3.44,4.31,7.62,7.86,11.62,11.05c4.16,3.33,8.69,5.61,13.76,8.06c1.56,0.75,3.09,1.69,4.7,2.66
		c3.05,1.84,6.19,3.77,9.81,4.58c1.33,0.31,2.67,0.42,4.02,0.42c2.09,0,4.2-0.27,6.25-0.53c1.98-0.27,4.03-0.53,5.97-0.53
		c6.5,0,11.2-0.45,15.73-1.48c1.62-0.36,3.34-0.64,4.98-0.91c3.61-0.56,7.33-1.17,10.72-2.8l1.08-0.53
		c4.53-2.16,9.17-4.41,13.11-7.53c2.77-2.22,4.5-5.28,6.2-8.23c1.03-1.84,2.03-3.58,3.22-5.08c0.91-1.12,1.89-2.25,2.83-3.33
		c2.48-2.84,5.05-5.81,6.8-9.42l0.7-1.48c2.08-4.27,4.23-8.7,5.33-13.53c0.87-3.84,0.97-7.89,0.97-11.86h20.04
		c0,4.06-0.06,7.95-0.73,11.76c-0.14,0.77-0.27,1.52-0.41,2.28c-0.8,4.77-1.55,9.25-3.11,13.51c-1.17,3.2-3.06,6.01-5.08,9.01
		c-1.06,1.58-2.16,3.2-3.14,4.91c-1.11,1.94-2.03,4-2.89,6.02c-1.36,3.09-2.62,6.03-4.62,8.41c-1.92,2.28-4.56,3.92-7.37,5.62
		c-1.97,1.22-3.98,2.47-5.81,3.98c-0.81,0.69-1.62,1.39-2.44,2.09c-3.34,2.86-6.45,5.56-10.17,7.69c-3.59,2.09-7.44,3.44-11.51,4.84
		c-1.09,0.37-2.17,0.77-3.27,1.17c-5.22,1.89-9.98,3.55-15.28,4.48c-2.05,0.34-4.08,0.91-6.05,1.44c-3.36,0.91-6.53,1.78-9.83,1.78
		c-4.7,0-9.42-0.84-13.97-1.66c-0.7-0.12-1.42-0.27-2.11-0.39c-2.19-0.37-4.41-0.53-6.56-0.7c-1.92-0.14-3.78-0.3-5.56-0.56
		c0-0.86,0.11-1.72,0.23-2.55c-0.2,0.8-0.37,1.64-0.47,2.5c-1.36-0.22-2.69-0.52-3.95-0.97c-3.08-1.12-5.97-3.16-8.78-5.12
		c-1.67-1.19-3.44-2.42-5.23-3.45c-4.69-2.72-9.14-5.84-13.25-9.3c-1.55-1.3-3.23-2.5-4.87-3.67c-2.95-2.12-5.73-4.12-7.87-6.67
		c-1.8-2.16-2.77-5.03-3.78-8.09c-0.8-2.36-1.61-4.81-2.89-7c-2.53-4.41-4.64-9-6.62-14.45c-1.62-4.47-2.84-9.2-3.92-15.39
		c-0.44-2.48-1.44-4.87-2.41-7.19c-0.62-1.48-1.22-2.94-1.69-4.34h22.84C234.33,318.86,234.3,322.85,235.19,326.7z"/>
	<path class="st0" d="M255.97,326.71c1.45,4.48,3.89,9,7.69,14.22c2.86,3.92,6.75,7.67,11.51,11.17c4.52,3.28,9.86,5.25,14.44,6.75
		c4.66,1.5,9.94,3.22,15.65,3.22c4.83,0,9.98-0.92,15.78-2.8c5.48-1.78,10.31-4.17,14.36-7.11c4.97-3.62,8.76-7.26,11.58-11.14
		c3.08-4.23,5.59-9.2,7.28-14.4c1.22-3.72,1.53-7.67,1.61-11.64h17.45c0,3.89-0.06,7.56-0.86,11.06c-1.02,4.44-3.05,8.66-5.05,12.76
		l-0.72,1.48c-1.55,3.17-3.84,5.83-6.28,8.62c-0.95,1.11-1.97,2.25-2.91,3.45c-1.37,1.7-2.48,3.66-3.56,5.53
		c-1.59,2.78-3.09,5.44-5.31,7.2c-3.61,2.87-8.08,5.03-12.42,7.11l-1.08,0.53c-2.91,1.39-6.22,1.92-9.7,2.47
		c-1.72,0.3-3.48,0.56-5.23,0.97c-4.25,0.95-8.72,1.37-14.94,1.37c-2.19,0-4.34,0.3-6.44,0.56c-3.2,0.42-6.22,0.83-9,0.19
		c-3.05-0.7-5.83-2.36-8.75-4.16c-1.61-0.97-3.28-2-5-2.83c-4.87-2.34-9.22-4.53-13.08-7.61c-3.84-3.06-7.83-6.47-11.05-10.5
		c-0.92-1.14-1.89-2.27-2.84-3.36c-2.42-2.84-4.95-5.75-6.5-8.98c-1.56-3.27-2.33-7.16-3.08-10.91c-0.27-1.34-0.53-2.72-0.83-4.05
		c-0.8-3.48-0.78-7.11-0.7-10.94h17.11C254.92,318.89,254.73,322.93,255.97,326.71z"/>
	<path class="st0" d="M285.88,330.07c5.39,5.37,12.26,8.33,19.37,8.33c7.36,0,14.3-2.91,19.54-8.14c4.37-4.36,7.17-9.69,8.11-15.28
		h19.34c-0.06,3.72-0.36,7.25-1.42,10.53c-1.58,4.84-3.92,9.47-6.76,13.39c-2.59,3.58-6.12,6.95-10.8,10.36
		c-3.73,2.72-8.22,4.94-13.34,6.59c-5.42,1.77-10.22,2.61-14.67,2.61c-5.14,0-10.14-1.59-14.53-3.03
		c-4.33-1.41-9.33-3.25-13.44-6.23c-4.48-3.28-8.09-6.76-10.72-10.37c-3.58-4.91-5.86-9.11-7.19-13.22
		c-1.05-3.17-0.87-6.73-0.7-10.5v-0.13h19.34C278.93,320.57,281.67,325.84,285.88,330.07z"/>
	<path class="st0" d="M284.45,314.98h42.04c-0.91,3.94-3.03,7.73-6.12,10.83c-4.06,4.06-9.44,6.3-15.11,6.3
		c-5.42,0-10.72-2.31-14.9-6.5C287.32,322.59,285.31,318.92,284.45,314.98z"/>
	<path class="st0" d="M425.64,317.37c-0.16-0.81-0.31-1.61-0.45-2.39h27.86c0.31,1.3,0.73,2.56,1.14,3.83
		c0.89,2.75,1.75,5.34,1.5,7.72c-0.25,2.25-1.95,4.47-3.78,6.83s-3.7,4.8-4.3,7.61c-0.28,1.34-0.55,2.64-0.8,3.94
		c-0.75,3.78-1.45,7.36-2.61,10.94c-0.39,1.2-0.77,2.41-1.14,3.59c-1.19,3.78-2.3,7.36-3.87,10.89c-1.56,3.52-3.45,6.69-5.45,10.03
		c-0.66,1.11-1.33,2.23-2,3.37c-1.3,2.28-2.03,4.84-2.72,7.3c-0.78,2.77-1.52,5.37-3.02,7.41c-2.98,4.11-6.2,8.44-9.67,12.3
		c-1.87,2.06-4.23,3.7-6.73,5.42c-0.56,0.39-1.14,0.8-1.69,1.2c-0.11-0.13-0.23-0.25-0.33-0.39c-0.59-0.69-1.14-1.47-1.83-2.31
		c-0.66-0.83-1.33-1.62-2.02-2.37c-0.72-0.77-1.52-1.55-2.39-2.25c-0.92-0.72-1.72-1.2-2.39-1.75c-0.69-0.55-1.28-1.17-1.98-1.91
		c-0.72-0.77-1.52-1.53-2.39-2.17c-0.87-0.69-1.66-1.14-2.31-1.73c-0.34-0.28-0.67-0.61-1.02-0.92l-0.47-0.52l-0.37-0.44
		c-0.36-0.5-0.52-1.09-0.53-1.8c0.56-0.61,1.12-1.2,1.69-1.78c2.28-2.28,3.69-5.16,5.03-7.95c1.03-2.09,1.98-4.06,3.28-5.77
		c1.28-1.64,2.87-3.11,4.58-4.64c2.31-2.06,4.7-4.2,6.33-7.01c2.59-4.45,4.94-9.28,7.03-14.31c1.81-4.37,3.87-9.59,5.33-15.03
		c1.23-4.61,2.59-10.09,3.31-15.62C426.85,323.51,426.23,320.39,425.64,317.37z"/>
	<path class="st0" d="M457.6,317.7c-0.3-0.94-0.61-1.83-0.86-2.72h27.7c0.27,1.28,0.61,2.53,0.95,3.75c0.36,1.33,0.7,2.61,0.95,3.86
		c-0.62-0.09-1.27-0.16-1.92-0.2c-0.66-0.06-1.34-0.05-2.05,0.03c-0.34,0.05-0.69,0.09-1.05,0.17c-0.33,0.08-0.56,0.17-0.84,0.25
		l-3.37,0.86c-1.14,0.31-2.3,0.66-3.42,1.08c-0.56,0.2-1.12,0.44-1.67,0.7c-0.56,0.28-1.12,0.59-1.61,1.05
		c-1,0.84-1.5,2.03-2.02,2.98c-0.56,0.98-1.44,1.75-2.48,2.27c1.11-0.31,2.17-0.97,2.92-1.94c0.75-0.94,1.37-1.91,2.25-2.42
		c0.44-0.3,0.95-0.45,1.45-0.61c0.53-0.16,1.08-0.28,1.62-0.41c1.11-0.2,2.23-0.36,3.36-0.47l3.48-0.31
		c0.27-0.02,0.61-0.08,0.84-0.08c0.23-0.02,0.45-0.02,0.69,0c0.45,0.02,0.92,0.09,1.44,0.22c0.83,0.19,1.72,0.5,2.67,0.78v0.05
		c-0.25,2.67,0.14,5.39,0.52,8.03c0.41,2.92,0.78,5.69,0.34,8.22c-0.55,3.09-1.59,6.25-2.64,9.3c-0.67,2.03-1.37,4.11-1.94,6.19
		c-1.34,5.06-2.97,10.22-4.81,15.3c-0.84,2.31-2.78,4.28-4.81,6.39c-1.97,2.02-3.98,4.08-5.19,6.64c-1.23,2.66-1.33,5.73-1.44,8.69
		c-0.11,2.95-0.2,5.75-1.37,7.76c-1.2,2.08-3.52,3.62-5.98,5.27c-2.41,1.61-4.92,3.27-6.58,5.61c-1.66,2.39-2.33,5.34-3,8.22
		c-0.66,2.87-1.27,5.61-2.78,7.41c-2.2,2.61-4.83,5.08-7.37,7.47c-1.36,1.27-2.75,2.56-4.05,3.87c-0.02-0.02-0.03-0.02-0.05-0.03
		c-0.31-0.33-0.62-0.64-0.95-0.94c-0.38-0.28-0.75-0.58-1.17-0.81c-0.84-0.48-1.77-0.84-2.59-0.97c-0.86-0.19-1.55-0.2-2.16-0.23
		l-1.39,0.02c-0.37,0-0.55-0.03-0.69-0.03c-0.09-0.03-0.16,0-0.2-0.05c-0.14-0.03-0.53-0.44-0.61-0.59
		c-0.12-0.16-0.2-0.55-0.17-1.52c0.02-0.97,0.09-2.58-0.53-4.22c-0.3-0.8-0.72-1.56-1.2-2.14c-0.22-0.31-0.47-0.59-0.8-0.89
		c-0.31-0.31-0.61-0.61-1.02-0.84l-0.58-0.36c-0.19-0.11-0.41-0.19-0.61-0.28c-0.42-0.2-0.83-0.3-1.23-0.41
		c-0.44-0.11-0.78-0.13-1.17-0.17c-0.36-0.03-0.69-0.03-1.02-0.03c-1.27,0.05-2.19,0.2-2.83,0.2c-0.64-0.03-0.77-0.05-1.03-0.23
		c-0.05-0.02-0.08-0.05-0.11-0.08c-0.05-0.02-0.06-0.05-0.14-0.14c-0.12-0.14-0.28-0.28-0.37-0.42c-0.23-0.28-0.42-0.55-0.58-0.83
		s-0.28-0.56-0.42-0.95c-0.12-0.41-0.27-0.92-0.48-1.5c-0.2-0.59-0.5-1.22-0.81-1.8c-0.14-0.2-0.3-0.36-0.42-0.56
		c0.48-0.34,0.94-0.67,1.44-1.02c2.55-1.78,5.19-3.61,7.36-6c3.56-3.97,6.87-8.39,9.92-12.58c1.86-2.53,2.72-5.58,3.55-8.53
		c0.67-2.36,1.3-4.58,2.39-6.48c0.66-1.12,1.31-2.23,1.95-3.33c1.97-3.28,4.02-6.69,5.66-10.42c1.67-3.7,2.87-7.56,4.03-11.26
		c0.36-1.19,0.73-2.37,1.11-3.55c1.25-3.81,1.97-7.47,2.73-11.37c0.25-1.28,0.5-2.56,0.8-3.87c0.42-2.02,1.97-4.03,3.61-6.16
		c2.06-2.66,4.17-5.41,4.52-8.67C459.59,323.76,458.57,320.68,457.6,317.7z"/>
	<path class="st0" d="M530.33,339.67c1.27,0.56,2.41,1,3.27,1.41c0.87,0.41,1.73,0.87,2.69,1.36l3.03,1.69
		c0.17,0.09,0.36,0.19,0.53,0.28c2.06,1.08,4.53,2.19,7.26,2.94c0.36,0.11,0.77,0.2,1.19,0.31c0.42,0.08,0.84,0.16,1.28,0.23
		c0.84,0.14,1.7,0.2,2.5,0.27c1.64,0.09,3.14,0.02,4.37-0.03c0.97-0.03,1.73-0.05,2.48-0.05c-0.37,0.83-0.77,1.66-1.19,2.5
		c-1.2,2.47-2.44,5-2.97,7.75c-0.56,3.02,0.33,6.16,1.17,9.19c0.81,2.87,1.56,5.61,1.02,7.83c-0.69,2.69-1.97,5.23-3.33,7.94
		c-1.14,2.28-2.33,4.66-3.11,7.12c-0.12,0.36-0.27,0.7-0.44,1.03c-0.94,1.81-2.64,3.45-4.45,5.17c-0.37,0.38-0.75,0.73-1.12,1.11
		c-1.81,1.77-3.53,3.64-4.45,5.97c-1.23,3.09,0.06,6.87,1.28,10.53c1.05,3.12,2.12,6.36,1.27,8.19c-0.98,2.09-3.34,3.77-5.83,5.53
		c-2.59,1.81-5.27,3.69-6.73,6.36c-1.17,2.12-3.36,3.77-5.67,5.48c-2.31,1.72-4.72,3.5-6.31,5.98c-2.97,4.7-5.78,8.86-8.87,13.11
		c-1.92,2.62-1.89,6.36-1.87,9.95c0.03,3.12,0.05,6.34-1.3,7.98c-1.42,1.72-2.81,3.56-4.12,5.36c-1.92,2.58-3.92,5.25-6.05,7.53
		c-2.81,2.98-5.98,5.92-9.06,8.76c-0.92,0.87-1.86,1.73-2.78,2.61c-1.86,1.75-4.41,2.91-7.09,4.16c-2.52,1.17-5.14,2.37-7.31,4.17
		c-1.8,1.5-4.52,2.06-7.39,2.64c-2.97,0.62-6.06,1.25-8.5,3.02c-1.08,0.78-2.12,1.56-3.19,2.34c-3.27,2.42-6.34,4.7-9.75,6.86
		c-2.77,1.77-4.08,5.34-5.31,8.81c-1.09,3-2.22,6.11-4.06,7.12c-2.3,1.27-5.03,1.91-7.95,2.58c-2.64,0.59-5.39,1.23-7.87,2.42
		l-0.22,0.09c-4.14,1.94-8.41,3.95-12.67,5.72c-0.66,0.3-1.31,0.56-1.97,0.81c-3.52,1.39-7.28,2.56-10.92,3.7
		c-0.94,0.28-1.91,0.58-2.84,0.87c-0.58,0.19-1.12,0.36-1.7,0.55c-2.75,0.91-5.64,1.34-8.7,1.83c-2.39,0.37-4.84,0.77-7.25,1.37
		c-2.28,0.59-4.97-0.02-7.81-0.62c-2.92-0.62-5.94-1.3-8.89-0.73c-1.16,0.2-2.28,0.44-3.41,0.66c-4.14,0.8-8.05,1.56-12.22,2.09
		c-3.14,0.39-5.84,2.66-8.45,4.83c-2.31,1.95-4.72,3.97-6.91,4.09c-0.62,0.03-1.23,0.09-1.84,0.17c-1.98,0.23-3.95,0.66-5.87,1.06
		c-2.87,0.61-5.84,1.23-8.64,1.23c-2.34,0-4.8-0.23-7.22-0.55c-0.75-0.08-1.5-0.19-2.25-0.28c-2.27-0.28-4.64-0.58-6.94-0.73
		c-2.12-0.12-4.48-2.39-6.76-4.56c-2.61-2.47-5.31-5.06-8.51-5.45c-1.42-0.17-2.83-0.34-4.22-0.5c-3.95-0.45-7.67-0.89-11.51-1.62
		c-3.45-0.64-6.67-1.55-10.08-2.52c-0.53-0.14-1.06-0.3-1.61-0.44c-1.22-0.34-2.44-0.69-3.7-1c-2.5-0.64-5.03-0.94-7.47-1.23
		c-2.02-0.23-3.95-0.45-5.84-0.86c-0.83-0.19-1.64-0.39-2.45-0.66c-2.66-0.86-5.44-1.08-8.12-1.27c-1.27-0.11-2.52-0.2-3.7-0.36
		c-1.52-0.2-2.95-0.5-4.3-1.03c-2.36-0.94-4.92-1.31-7.44-1.66c0.28-0.58,0.52-1.14,0.73-1.69l0.42-1.05l0.11-0.58
		c0.06-0.36,0.11-0.72,0.17-1.05v-0.02c0.19-1.28,0.23-2.36,0.27-3.25l0.06-2.8c0.02-0.7,0.06-1.14,0.03-1.16
		c0.02-0.16,0.11-0.47,0.2-0.72c0.06-0.28,0.19-0.59,0.34-0.94c0.53-1.36,1.61-3.3,2.64-6c0.97-2.7,1.34-4.66,1.69-5.64
		c0.09-0.25,0.16-0.47,0.25-0.64l0.02-0.08c0.14-0.27,0.28-0.55,0.41-0.83c0.25-0.56,0.45-1.19,0.59-1.75
		c0.09-0.42,0.17-0.89,0.22-1.34c0.02-0.23,0.03-0.47,0.06-0.69v-0.53c-0.03-0.66-0.06-1.39-0.16-1.83l-0.13-0.75
		c-0.05-0.25-0.11-0.42-0.16-0.62c-0.09-0.39-0.19-0.81-0.3-1.12c-0.06-0.19-0.13-0.39-0.19-0.59c0.05-0.02,0.08-0.03,0.13-0.03
		c0.41-0.11,0.73-0.16,1.22-0.3l0.69-0.23c0.22-0.05,0.56-0.19,0.81-0.3c0.3-0.12,0.53-0.2,0.84-0.39c0.34-0.17,0.67-0.37,1-0.58
		c0.09-0.05,0.2-0.14,0.31-0.22c0.37,0.36,0.75,0.72,1.12,1.09c2.28,2.17,4.64,4.44,7.67,5.62c2.16,0.86,4.23,2.17,6.41,3.58
		c2.64,1.7,5.39,3.45,8.48,4.42c3.08,0.94,6.36,0.61,9.56,0.3c2.72-0.27,5.3-0.53,7.56-0.02c3.69,0.84,7.45,1.33,11.09,1.78
		c1.72,0.23,3.45,0.45,5.17,0.72c2.27,0.33,4.53,1.5,6.94,2.73c2.87,1.48,5.83,3.02,9.09,3.25c3.27,0.23,6.56-0.05,9.78-0.33
		c2.3-0.22,4.67-0.41,6.95-0.41h3.23c4.42,0.03,9,0.05,13.42-0.28c2.37-0.17,4.87,0.2,7.51,0.61c2.22,0.33,4.52,0.67,6.78,0.67
		c0.91,0,1.81-0.05,2.7-0.17c3.34-0.5,6.62-1.52,9.81-2.52c2.25-0.7,4.37-1.36,6.53-1.84c2.19-0.52,4.56-0.83,6.87-1.14
		c3.23-0.45,6.59-0.92,9.75-1.89c3.19-0.97,5.61-3.55,7.97-6.01c1.97-2.09,3.83-4.05,5.91-4.86c2.11-0.83,4.81-0.67,7.69-0.52
		c3.37,0.19,6.87,0.39,9.84-1.05c2.94-1.42,5.62-3.41,8.22-5.33c2-1.48,3.89-2.87,5.87-4.03c2.8-1.61,4.89-4.12,6.92-6.58
		c1.7-2.05,3.33-3.98,5.25-5.3c0.95-0.64,1.8-1.37,2.59-2.17l0.02-0.02c1.45-1.41,2.67-2.98,3.91-4.55
		c1.58-2.02,3.09-3.92,4.92-5.39c1.7-1.36,4.48-1.77,7.44-2.19c0.52-0.08,1.03-0.16,1.56-0.25h0.02c3-0.47,5.91-1.14,8.03-3.09
		c2.05-1.92,3.31-4.47,4.44-7.05v-0.02c0.19-0.42,0.34-0.81,0.53-1.23c1.08-2.53,2.08-4.92,3.66-6.61c2.31-2.48,4.23-5.23,6.09-7.89
		c1.23-1.75,2.5-3.55,3.84-5.22c1.36-1.72,4.02-2.73,6.81-3.81c2.36-0.92,4.8-1.86,6.67-3.34l0.02-0.02
		c0.78-0.59,1.47-1.27,2.02-2.08c0.34-0.47,0.62-0.97,0.89-1.45c0-0.02,0.02-0.02,0.02-0.03c1.28-2.28,2.14-4.81,2.97-7.26
		c0.84-2.5,1.66-4.86,2.84-6.89c2.7-4.7,5.16-9.72,7.64-14.86c1.59-3.28,2.83-6.78,4.05-10.16c0.64-1.78,1.31-3.62,2-5.41
		c1.17-3.02,1.08-6.28,0.98-9.47c-0.08-2.7-0.16-5.25,0.53-7.47c0.62-2.09,2.55-4.05,4.58-6.11c2.42-2.47,4.92-5.02,5.66-8.31
		c0.73-3.17-0.12-6.48-0.95-9.69c-0.72-2.73-1.39-5.31-1.05-7.58c0.28-1.91,0.94-3.81,1.69-5.78c0.02-0.02,0.02-0.02,0.03-0.02
		l0.81-0.19c0.22-0.05,0.41-0.06,0.58-0.09c0.3-0.02,0.48,0,0.58,0.05c0.05,0.02,0.09,0.03,0.12,0.08c0.03,0.02,0.03,0.02,0.05,0.03
		c0.03,0.03,0.05,0.05,0.08,0.06c0.03,0.03,0.06,0.05,0.08,0.06l0.13,0.09c0.09,0.05,0.08,0.05,0.45,0.25
		C527.94,338.54,529.11,339.13,530.33,339.67z"/>
	<path class="st0" d="M526.98,326.59c0.25-2.09,0.87-4.22,1.53-6.47c0.5-1.69,1.02-3.39,1.36-5.14h28.86
		c0.33,1.39,0.75,2.73,1.17,4.06c0.86,2.73,1.67,5.33,1.5,7.78c-0.09,1.47-0.14,2.94-0.17,4.41l-2.86,0.41
		c-1.41,0.19-2.72,0.45-3.75,0.69c-1.06,0.22-1.87,0.37-2.56,0.47c-0.36,0.05-0.66,0.08-0.97,0.09c-0.14,0-0.3,0.02-0.45,0.02
		c-0.12,0-0.3,0-0.48-0.02c-1.58-0.12-3.28-0.56-5.34-1.27l-1.8-0.64l-1.53-0.53c-1.19-0.41-2.47-0.83-3.77-1.19
		c-1.33-0.36-2.42-0.59-3.34-0.81c-0.95-0.23-1.92-0.55-2.94-0.89l-1.17-0.41l-0.72-0.2l-0.77-0.17l-0.75-0.12
		c-0.27-0.03-0.55-0.05-0.8-0.06H526.98z"/>
	<path class="st0" d="M194.52,502.51c-1.87-1.08-3.44-2.81-5-4.73l-0.02-0.02c-0.28-0.36-0.55-0.7-0.84-1.08
		c-1.81-2.25-3.64-4.55-6.02-6.14c-3.27-2.25-6.42-4.83-9.45-7.3c-1.12-0.91-2.23-1.83-3.36-2.72c-1.84-1.48-3.81-2.81-5.73-4.09
		c-2.66-1.83-5.17-3.52-7.42-5.61c-2.06-1.91-3.69-4.28-5.39-6.78c-1.44-2.09-2.91-4.23-4.67-6.14l-1.25-1.33
		c-3.34-3.61-6.51-7.03-9.51-10.78c-2.59-3.27-4.86-6.61-7.25-10.16c-0.69-1.03-1.37-2.05-2.09-3.09c-1.34-1.97-2.87-3.84-4.36-5.64
		c-2.02-2.44-3.91-4.75-5.42-7.37c-0.98-1.7-2.06-3.41-3.08-5.03c-1.81-2.92-3.69-5.94-5.19-9.05c-1.06-2.19-1.11-4.98-1.11-7.91
		c-0.03-1.81-0.09-3.66-0.36-5.47c0.75,0.03,1.5-0.09,2.2-0.48c1.12-0.62,2.31-1.3,3.44-2c1.08-0.69,2-1.25,3.08-1.84l0.83-0.48
		c0.56-0.34,1.11-0.66,1.56-1.17c0.25-0.22,0.48-0.47,0.69-0.72c0.17-0.27,0.36-0.55,0.52-0.83c0.19-0.27,0.28-0.53,0.39-0.8
		c0.11-0.25,0.25-0.55,0.28-0.78c0.58-2,0.5-3.42,0.61-4.41c0.03-0.55,0.13-0.86,0.14-1.08c0.05-0.16,0.05-0.12,0-0.12
		c0,0,0,0,0-0.02v-0.02c0-0.02,0-0.02,0.02-0.02l0.08-0.06c0.23-0.13,0.47-0.23,0.69-0.34c0.45-0.22,0.86-0.41,1.3-0.56
		c0.42-0.13,0.95-0.23,1.67-0.41c0.7-0.19,1.5-0.45,2.2-0.75c0.72-0.28,1.39-0.64,1.98-0.95c0.44-0.23,0.87-0.45,1.28-0.61
		c0.09,0.25,0.23,0.5,0.33,0.77c1.09,3.03,3.31,5.39,5.44,7.67c1.78,1.87,3.44,3.64,4.37,5.66c0.95,2.05,1.52,4.3,2.09,6.67
		c0.72,2.94,1.45,5.98,3.03,8.7c1.59,2.75,3.86,4.91,6.08,6.98c1.77,1.69,3.45,3.28,4.73,5.11c1.2,1.72,1.44,4.59,1.69,7.37
		c0.3,3.48,0.59,7.11,2.73,9.66c2.17,2.58,4.78,4.87,7.3,7.11c1.64,1.45,3.19,2.81,4.62,4.27c2.27,2.27,5.31,3.44,8.3,4.58
		c2.45,0.97,4.77,1.87,6.48,3.3c1.67,1.41,2.87,3.67,4.16,6.06c1.52,2.87,3.11,5.86,5.75,7.7c4.64,3.25,9.44,6.33,13.84,8.91
		c2.75,1.56,5.91,2.22,8.97,2.84c2.52,0.52,4.89,1,6.95,1.95c1.14,0.53,2.31,0.95,3.48,1.31c-0.06,0.03-0.12,0.05-0.2,0.09
		c-0.5,0.3-1.11,0.67-1.64,1.05c-0.56,0.37-1.06,0.75-1.55,1.14l-0.69,0.53c-0.05,0.03-0.13,0.08-0.17,0.11
		c-0.09,0.02-0.11,0.02-0.09-0.03c0.09-0.05-0.14-0.08-1.81,0.14c-0.8,0.11-1.8,0.33-2.78,0.75c-0.5,0.17-0.92,0.42-1.39,0.66
		c-0.41,0.25-0.83,0.52-1.19,0.78l-0.53,0.41l-0.45,0.36l-0.59,0.5l-1.2,1l-2.3,1.98l-2.31,1.94c-0.97,0.87-1.64,1.81-2.16,2.67
		c-0.5,0.83-0.86,1.61-1.12,2.25c-0.34,0.87-0.61,1.58-0.81,2.12l-1.78,0.13c-0.58,0.05-1.2,0.09-1.94,0.19
		c-0.73,0.09-1.62,0.27-2.7,0.62c-0.23,0.06-0.61,0.2-0.91,0.34c-0.31,0.16-0.59,0.27-0.94,0.45c-0.37,0.22-0.77,0.47-1.12,0.73
		c-0.19,0.12-0.34,0.22-0.55,0.41c-0.08,0.08-0.17,0.14-0.23,0.22c-0.13,0.12-0.23,0.23-0.36,0.34c-0.28,0.3-0.53,0.61-0.8,0.92
		C195.44,502.93,194.96,502.77,194.52,502.51z"/>
	<path class="st0" d="M52.35,318.5c0.19-1.16,0.39-2.33,0.55-3.52h31.17c0.48,1.7,1.19,3.34,1.91,4.95
		c1.05,2.47,2.05,4.78,2.22,7.05c0.14,1.98,0.22,3.98,0.28,5.91c0.14,3.37,0.25,6.87,0.78,10.39c0.33,2.12,0.52,4.31,0.7,6.41
		c0.28,3.23,0.59,6.56,1.34,9.86c1.33,5.91,2.55,10.86,4.09,15.9c0.95,3.09,2.58,5.8,4.14,8.41c1.27,2.12,2.47,4.12,3.31,6.3
		c0.84,2.14,0.87,4.72,0.91,7.44c0.03,3.22,0.06,6.52,1.48,9.44c1.58,3.3,3.5,6.39,5.37,9.37c1,1.61,2.05,3.28,3,4.95
		c1.67,2.86,3.75,5.41,5.77,7.84c1.44,1.75,2.91,3.55,4.19,5.39c0.69,1.02,1.37,2.06,2.08,3.08c2.31,3.44,4.7,7.01,7.39,10.39
		c3.09,3.87,6.45,7.47,9.72,10.97l1.23,1.34c1.59,1.7,2.92,3.66,4.33,5.72c1.77,2.56,3.58,5.2,5.94,7.39
		c2.42,2.27,5.19,4.12,7.84,5.94c1.84,1.25,3.77,2.55,5.52,3.92c1.11,0.91,2.22,1.8,3.31,2.7c0.78,0.64,1.56,1.27,2.36,1.91
		c2.36,1.91,4.8,3.81,7.37,5.56c1.91,1.31,3.5,3.31,5.19,5.44c2.02,2.48,4.08,5.08,6.87,6.7c0.55,0.3,1.09,0.52,1.67,0.7
		c-0.02,0.09-0.05,0.17-0.08,0.27c-0.05,0.23-0.11,0.47-0.14,0.72c-0.05,0.23-0.08,0.48-0.09,0.66c-0.12,1.53,0.02,2.67,0.13,3.52
		c0.16,0.89,0.31,1.58,0.48,2.22c0.27,1.06,0.52,1.91,0.69,2.59c-0.13,0.23-0.23,0.45-0.34,0.67c-0.61,1.36-1.05,2.53-1.41,3.48
		c-0.34,0.97-0.66,1.67-0.92,2.2c-0.5,1.02-1.5,2.52-2.7,4.72c-0.3,0.56-0.61,1.16-0.89,1.8c-0.33,0.69-0.58,1.3-0.86,2.11
		c-0.64,1.89-0.89,3.45-1.06,4.73l-0.37,3.19c-0.03,0.17-0.05,0.3-0.08,0.45c-0.16,0.25-0.28,0.47-0.41,0.59l-0.69,0.72
		c-0.19-0.12-0.37-0.25-0.56-0.36c-1.52-1-3.06-1.97-4.64-2.84c-1.77-0.97-3.61-1.92-5.41-2.83c-3.02-1.55-6.12-3.12-8.94-4.92
		c-1.3-0.81-2.55-1.61-3.87-2.37h-0.09c-0.61-0.36-1.25-0.7-1.86-1.05c-2.8-1.58-5.67-3.19-8.19-5.05c-2.34-1.69-4.42-3.8-6.61-6.03
		c-1.72-1.73-3.5-3.55-5.41-5.11l-0.02-0.02c-2.12-1.75-4.66-3.02-7.11-4.25c-2.66-1.34-5.19-2.59-7.09-4.39
		c-1.52-1.42-1.81-4.72-2.11-7.92c-0.22-2.17-0.41-4.41-1.03-6.34c-0.41-1.36-0.98-2.58-1.92-3.55c-1.92-2.06-4.33-3.55-6.66-4.97
		c-2.45-1.48-4.77-2.92-6.37-4.87c-1.48-1.78-3.06-3.47-4.61-5.11c-2.12-2.23-4.3-4.55-6.09-7.03l-2.25-3.06
		c-2.41-3.27-4.92-6.67-7.11-10.12c-1.08-1.7-1.98-3.48-2.86-5.34c-0.42-0.89-0.83-1.8-1.25-2.73c-0.31-0.7-0.66-1.41-0.98-2.12
		c-0.66-1.45-1.34-2.89-2.12-4.3c-0.36-0.64-0.73-1.3-1.14-1.91c0,0,0-0.02-0.02-0.02c-0.98-1.55-2.09-3.02-3.19-4.44
		c-1.8-2.41-3.52-4.67-4.69-7.2c-0.34-0.7-0.61-1.44-0.83-2.2c-0.56-1.8-0.89-3.73-1.23-5.78c-0.44-2.62-0.89-5.34-1.89-7.89
		c-0.06-0.16-0.13-0.3-0.17-0.47c-0.78-2.22-0.86-4.75-0.95-7.41c-0.09-2.75-0.2-5.59-1.06-8.3c-0.53-1.61-1.14-3.14-1.8-4.64
		c-0.3-0.7-0.61-1.39-0.91-2.08c-1.22-2.75-2.36-5.33-3.08-8.16c-1.09-4.27-1.87-8.42-2.7-12.83l-0.52-2.78
		c-0.59-3.12-3.17-5.67-5.67-8.16c-2.19-2.17-4.45-4.42-4.73-6.56c-0.27-2.17,1.12-4.78,2.61-7.53c1.59-3,3.27-6.09,3.06-9.26
		C51.41,324.01,51.86,321.34,52.35,318.5z"/>
	<path class="st0" d="M158.8,357.85c-0.09,0.09-0.16,0.17-0.25,0.22c-0.09,0.12-0.31,0.17-0.44,0.28c-0.22,0.06-0.45,0.19-0.67,0.25
		c-0.42,0.16-0.8,0.19-1.22,0.19c-0.42,0-0.89-0.08-1.53-0.17c-0.66-0.11-1.48-0.22-2.34-0.16c-0.88,0.05-1.7,0.3-2.47,0.58
		c-0.83,0.34-1.16,0.52-1.66,0.69c-0.98,0.34-1.64,0.34-3.17,0.47c-0.73,0.06-1.58,0.22-2.31,0.47c-0.77,0.23-1.44,0.53-2.11,0.84
		c-0.66,0.33-1.34,0.72-1.98,1.2c-0.69,0.48-1.3,1.09-1.77,1.62c-0.48,0.53-0.8,0.87-1.11,1.14c-0.33,0.27-0.66,0.5-1.08,0.72
		c-0.41,0.22-0.91,0.45-1.36,0.62c-0.47,0.19-0.87,0.3-1.31,0.36c-0.27,0.06-0.59,0.09-0.95,0.14c-0.08-0.19-0.17-0.39-0.27-0.56
		c-1.31-2.73-2.69-5.55-3.44-8.37c-0.62-2.34-0.2-5.06,0.25-7.95c0.42-2.78,0.87-5.67,0.37-8.47c-0.22-1.28-0.45-2.59-0.7-3.87
		c-0.73-3.95-1.44-7.7-1.77-11.66c-0.23-2.7-1.22-5.3-2.16-7.8c-0.47-1.25-0.92-2.47-1.27-3.66h33.43c0.17,4.12,0.53,8,0.87,11.37
		c0.17,1.5,0.28,3,0.41,4.5c0.3,3.64,0.61,7.37,1.41,11.11c0.45,2.16,0.3,4.52,0.13,7.01C158.16,351.93,157.96,354.98,158.8,357.85z
		"/>
	<path class="st0" d="M419.07,439.72c0.14,0.42,0.31,0.81,0.52,1.2c0.2,0.37,0.42,0.73,0.66,1.05c0.22,0.33,0.47,0.64,0.78,0.95
		c0.14,0.16,0.3,0.3,0.44,0.45l0.53,0.44c0.7,0.56,1.59,0.98,2.44,1.28c0.8,0.25,1.61,0.41,2.25,0.44c0.67,0.08,1.14,0.09,1.58,0.14
		c0.19,0.02,0.36,0.05,0.48,0.08c-0.06,0.05-0.12,0.09-0.2,0.13c-2.16,1.28-4.37,2.59-6.33,4.22c-2.25,1.91-4.8,3.36-7.51,4.91
		c-1.97,1.11-3.98,2.27-5.89,3.59c-2.03,1.42-3.86,3.16-5.62,4.81c-2.19,2.06-4.25,4.02-6.64,5.41c-1.92,1.11-3.8,2.37-5.59,3.61
		c-2.58,1.75-5.25,3.58-8.01,4.87c-2.27,1.06-5,1.22-7.91,1.42c-2.73,0.16-5.56,0.34-8.16,1.3c-5.61,2.05-10.37,3.56-14.97,4.8
		c-3.73,1-7.45,1.59-11.37,2.25c-1.34,0.22-2.7,0.45-4.05,0.67c-2.55,0.44-4.95,1.37-7.3,2.27c-2.77,1.06-5.36,2.06-8.05,2.28
		l-0.95,0.09c-4.87,0.42-9.94,0.87-14.94,0.87c-2.8,0-5.56-0.69-8.48-1.37c-2.36-0.56-4.8-1.16-7.25-1.36
		c-2.92-0.27-5.7-1.06-8.64-1.89c-2.17-0.62-4.41-1.27-6.72-1.67c-1.02-0.19-2.05-0.23-3.08-0.23c-1.73,0-3.45,0.19-5.16,0.39
		c-2.84,0.31-5.55,0.61-7.94-0.03c-2.61-0.69-5.03-2.12-7.58-3.62c-2.14-1.27-4.37-2.56-6.78-3.45c-0.11-0.03-0.23-0.06-0.33-0.11
		c0-0.03,0.02-0.09,0.02-0.14c0.03-0.22,0.03-0.37,0.05-0.56v-0.48l0.02-1.25c0.11-0.02,0.19-0.02,0.31-0.02
		c0.8-0.05,1.75-0.03,2.83-0.02c1.11-0.02,2.3,0.02,3.92-0.28c0.36-0.05,0.91-0.23,1.33-0.36c0.23-0.06,0.52-0.2,0.78-0.33
		c0.28-0.14,0.55-0.28,0.81-0.42c0.3-0.2,0.58-0.44,0.86-0.69c0.14-0.11,0.27-0.23,0.39-0.37c0.14-0.11,0.28-0.33,0.42-0.47
		c0.28-0.37,0.45-0.72,0.62-1.09c0.17-0.34,0.28-0.67,0.38-1c0.31-1.23,0.27-2.11,0.2-2.86c-0.06-0.77-0.19-1.41-0.31-1.98
		c-0.27-1.17-0.58-2.19-0.86-3.14c-0.27-0.94-0.55-1.83-0.69-2.56c-0.03-0.12-0.05-0.23-0.08-0.34c0.64-0.14,1.45-0.23,2.31-0.3
		c0.97-0.09,2.03-0.16,3.2-0.33c0.59-0.09,1.2-0.19,1.92-0.41c0.7-0.19,1.53-0.52,2.41-1.2c0.22-0.12,0.45-0.41,0.66-0.62
		c0.11-0.12,0.22-0.23,0.31-0.36l0.12-0.19l0.06-0.09c0.17-0.28,0.31-0.53,0.45-0.78c2.36,1.45,4.81,2.86,7.62,3.45
		c3.11,0.66,6.3,0.56,9.41,0.48c2.31-0.05,4.5-0.11,6.64,0.11c1.66,0.17,3.34,0.39,4.98,0.62c3.52,0.47,7.14,0.97,10.84,0.97
		c3.2,0,6.2-0.97,9.11-1.92c2.27-0.75,4.37-1.44,6.52-1.67c2.17-0.2,4.36-0.09,6.67,0.02c3.02,0.16,6.12,0.33,9.22-0.33
		c2.16-0.45,4.53-0.33,7.06-0.2c3.11,0.16,6.33,0.33,9.31-0.66c3.05-0.98,5.7-2.84,8.28-4.62c1.97-1.39,3.83-2.7,5.81-3.58
		c1.94-0.86,4.02-1.5,6.19-2.17c3.02-0.94,6.14-1.89,8.94-3.5c2.75-1.61,5-3.91,7.17-6.12c1.67-1.7,3.22-3.31,4.98-4.56
		c3.09-2.25,5.89-4.87,8.58-7.42c1.06-1,2.14-2,3.22-2.97c0.12,0.27,0.23,0.56,0.31,0.87l0.31,1.36c0.12,0.56,0.34,1.22,0.61,1.83
		c0.27,0.64,0.61,1.2,0.95,1.73c0.19,0.27,0.36,0.5,0.55,0.73c0.08,0.12,0.2,0.27,0.36,0.42l0.42,0.44c0.27,0.3,0.64,0.53,0.98,0.8
		c0.34,0.23,0.77,0.41,1.14,0.58c0.78,0.28,1.58,0.47,2.25,0.52c1.36,0.11,2.41,0.02,3.12,0.08c0.75,0.05,0.94,0.2,1.03,0.33
		c0.08,0.08,0.44,0.62,0.45,0.84c0.05,0.25,0.03,0.67-0.08,1.67c-0.03,0.53-0.11,1.12-0.08,1.89
		C418.67,438,418.78,438.89,419.07,439.72z"/>
	<path class="st0" d="M259.95,450.12c-1.92-0.61-3.87-1.14-5.77-1.62c-3.17-0.83-6.14-1.61-8.98-2.87c-2.8-1.25-5.28-2.94-7.92-4.73
		c-1.67-1.14-3.42-2.31-5.23-3.37c-1.75-1.02-3.56-1.92-5.3-2.78c-2.91-1.47-5.66-2.86-8.19-4.7c-2.16-1.58-4.72-2.52-7.2-3.45
		c-2.73-1.02-5.31-1.98-7.16-3.64c-1.72-1.55-2.64-4.16-3.62-6.89c-0.97-2.72-1.95-5.52-3.86-7.61c-1.34-1.5-2.75-2.91-4.14-4.25
		c-2.31-2.3-4.48-4.48-6.34-7.03c-2.16-2.95-3.89-6.06-5.7-9.36c-0.7-1.28-1.42-2.58-2.16-3.84c-1.3-2.22-3.03-4.12-4.72-5.97
		c-1.97-2.12-3.83-4.16-4.87-6.53c-0.75-1.64-1.58-3.31-2.36-4.94c-1.34-2.7-2.69-5.48-3.7-8.3c0.17-0.59,0.3-1.14,0.39-1.66
		c0.19-1.31,0.36-2.36,0.75-2.95c0.17-0.31,0.44-0.55,0.78-0.77c0.41-0.22,0.86-0.45,1.28-0.53c0.44-0.08,0.86-0.09,1.39-0.05
		c0.52,0.05,1.14,0.19,1.86,0.3c0.7,0.09,1.52,0.09,2.3-0.06c0.78-0.14,1.48-0.47,2.12-0.8c0.62-0.34,1.22-0.75,1.77-1.27
		c0.55-0.5,1.03-1.11,1.37-1.67c0.7-1.2,1.16-2.03,2.03-2.69c0.42-0.31,0.97-0.67,1.36-0.81c0.42-0.16,0.87-0.23,1.36-0.13
		c1.02,0.14,2.08,0.8,3.22,1.39c0.59,0.28,1.17,0.58,1.84,0.77c0.67,0.2,1.44,0.31,2.19,0.14c0.33-0.05,0.61-0.17,0.91-0.31
		c0.03,0.48,0.06,0.95,0.08,1.45c0.16,3.12,0.31,6.37,1.55,9.33c1.25,3,3.5,5.37,5.67,7.67c1.66,1.72,3.22,3.37,4.27,5.19
		c2.47,4.31,5.33,8,8.34,11.92l0.69,0.92c1.31,1.67,2.27,3.69,3.28,5.83c1.33,2.81,2.73,5.73,5,8c2.31,2.31,5.16,3.91,7.92,5.45
		c1.97,1.11,3.83,2.14,5.47,3.41c1.61,1.27,3.08,2.73,4.66,4.31c2.23,2.25,4.56,4.58,7.42,6.23c2.81,1.61,5.95,2.34,9,3.06
		c2.23,0.52,4.34,1.02,6.3,1.83c1.8,0.75,3.55,1.67,5.37,2.66c2.84,1.53,5.81,3.09,9.08,3.97c0.31,0.09,0.64,0.22,0.97,0.31
		c-0.17,0.45-0.3,0.95-0.48,1.39l-0.3,0.7c-0.11,0.25-0.2,0.5-0.31,0.75c-0.17,0.52-0.34,1-0.48,1.52
		c-0.61,1.98-1.08,3.91-1.81,5.48c-0.36,0.84-0.7,1.33-1.27,2c-0.58,0.61-1.25,1.22-1.98,1.91c-0.75,0.67-1.55,1.37-2.33,2.23
		c-0.39,0.45-0.78,0.91-1.14,1.47c-0.37,0.53-0.64,1.05-0.92,1.56c-0.58,1.19-1.03,2.33-1.45,3.37
		C261.46,450.72,260.73,450.39,259.95,450.12z"/>
	<path class="st0" d="M404.01,420.38c-1.14,1.03-2.27,2.09-3.37,3.14c-2.75,2.56-5.33,5-8.25,7.11c-1.98,1.47-3.73,3.23-5.42,4.95
		c-2.11,2.16-4.09,4.19-6.44,5.53c-2.42,1.41-5.22,2.27-8.17,3.19c-2.19,0.67-4.45,1.37-6.59,2.33c-2.28,1.02-4.37,2.48-6.42,3.91
		c-2.45,1.72-4.78,3.34-7.3,4.16c-2.37,0.77-5.14,0.64-8.05,0.48c-2.64-0.13-5.36-0.27-7.98,0.27c-2.62,0.58-5.36,0.42-8.26,0.28
		c-2.36-0.13-4.8-0.27-7.25,0c-2.52,0.27-4.92,1.05-7.25,1.81c-2.77,0.91-5.36,1.75-8,1.75c-3.45,0-6.95-0.47-10.34-0.94
		c-1.67-0.23-3.41-0.47-5.11-0.62c-1.31-0.16-2.61-0.19-3.92-0.19c-1.06,0-2.12,0.02-3.17,0.06c-3.05,0.08-5.89,0.14-8.59-0.42
		c-2.41-0.52-4.66-1.86-7.01-3.33c0.47-1.48,0.83-2.84,1.28-4.02c0.33-0.83,0.59-1.37,1.09-2.03c0.5-0.69,1.14-1.39,1.81-2.12
		c0.69-0.75,1.42-1.55,2.11-2.48c0.34-0.47,0.67-1,0.97-1.55c0.31-0.59,0.52-1.11,0.7-1.67c0.72-2.14,0.98-4.19,1.39-6.08
		c0.09-0.47,0.19-0.94,0.3-1.37c0.06-0.22,0.13-0.44,0.2-0.66l0.22-0.72c0.16-0.52,0.3-1,0.41-1.5c0.64,0.22,1.28,0.47,1.92,0.7
		c3.08,1.19,6.26,2.41,9.62,2.84c0.92,0.11,1.86,0.16,2.78,0.16c2.3,0,4.61-0.3,6.86-0.59c2.27-0.3,4.39-0.58,6.48-0.58
		c1.92,0,3.92,0.14,5.84,0.28c3.34,0.22,6.8,0.45,10.19,0.03c3.37-0.44,6.55-1.64,9.61-2.8c1.97-0.73,3.84-1.44,5.72-1.94
		c4.61-1.25,9.37-2.89,14.97-5.2c3.5-1.47,6.69-3.44,9.75-5.34c1.31-0.81,2.66-1.66,4-2.44c1.84-1.06,4-1.75,6.28-2.45
		c3-0.94,6.11-1.92,8.64-3.87c2.83-2.17,5.25-4.84,7.58-7.44c0.11,0.33,0.27,0.62,0.44,0.94c0.17,0.25,0.34,0.53,0.53,0.77l0.5,0.61
		c0.34,0.39,0.69,0.8,1.06,1.17c0.77,0.8,1.64,1.45,2.31,2.05c0.66,0.58,1.23,1.25,1.81,1.97c0.61,0.78,1.33,1.66,2.11,2.41
		c0.83,0.8,1.67,1.41,2.28,1.98c0.62,0.59,1.19,1.27,1.77,2.02c0.58,0.75,1.14,1.52,1.66,2.28c0.48,0.77,1.03,1.64,1.64,2.52
		c0.11,0.16,0.23,0.31,0.33,0.47C404.2,420.25,404.09,420.3,404.01,420.38z"/>
	<path class="st0" d="M277.35,409.94c-0.12,0.97-0.47,1.8-0.61,2.97c-0.13,1.09-0.03,2.16,0.08,3.17c0.22,2,0.55,3.95-0.05,5.47
		c-0.42,1.23-0.75,2.47-1.06,3.69c-0.34-0.12-0.69-0.25-1.05-0.36c-2.89-0.77-5.53-2.17-8.33-3.66c-1.84-0.98-3.73-2-5.7-2.81
		c-2.2-0.92-4.56-1.47-6.83-2c-2.92-0.69-5.69-1.33-8.03-2.69c-2.44-1.41-4.5-3.47-6.67-5.66c-1.58-1.58-3.2-3.22-5.02-4.61
		c-1.84-1.44-3.91-2.58-5.91-3.69c-2.66-1.5-5.17-2.91-7.12-4.86c-1.84-1.84-3.03-4.36-4.3-7.01c-1.05-2.22-2.14-4.5-3.66-6.5
		l-0.7-0.91c-2.95-3.81-5.72-7.42-8.09-11.5c-1.27-2.2-3.05-4.08-4.77-5.89c-2.03-2.16-3.97-4.19-4.97-6.56
		c-0.97-2.37-1.11-5.17-1.27-8.14c-0.05-1.02-0.11-2.06-0.2-3.09l2.48-1.33l1.62-0.89c0.58-0.34,1.12-0.69,1.58-1.17
		c0.97-0.95,1.34-2.25,1.83-3.36c0.27-0.55,0.58-1.08,1-1.55c0.41-0.45,0.94-0.78,1.48-1.12c-0.56,0.3-1.12,0.59-1.58,1.05
		c-0.47,0.44-0.83,0.97-1.12,1.53c-0.59,1.11-1.03,2.31-1.95,3.09c-0.44,0.41-0.95,0.69-1.52,0.95l-1.7,0.78l-2.22,1.02
		c-0.13-1.14-0.31-2.27-0.61-3.37c-0.53-2.02-1.27-3.97-1.97-5.89c-1.09-3.02-2.14-5.87-2.53-8.89c-0.23-1.75-0.55-3.53-0.84-5.25
		c-0.34-1.94-0.7-3.94-0.94-5.92h21.7c0.5,1.98,1.3,3.87,2.09,5.73c0.94,2.23,1.81,4.34,2.17,6.41c1.12,6.42,2.37,11.34,4.09,16
		c2.05,5.67,4.25,10.45,6.91,15.01c1.08,1.89,1.8,4.06,2.56,6.37c1.09,3.23,2.2,6.58,4.45,9.25c2.42,2.89,5.53,5.12,8.53,7.28
		c1.66,1.19,3.2,2.3,4.66,3.52c4.27,3.59,8.87,6.81,13.76,9.66c1.66,0.94,3.27,2.08,4.97,3.27c3,2.12,6.09,4.28,9.62,5.58
		c1.72,0.61,3.5,0.98,5.33,1.25c0.16,0.94,0.36,1.84,0.44,2.77C277.51,408.03,277.48,408.99,277.35,409.94z"/>
	<path class="st0" d="M187.07,336.26c0.7,1.92,1.37,3.77,1.87,5.61c0.34,1.27,0.5,2.61,0.61,4c-0.09,0.05-0.19,0.11-0.28,0.14
		c-0.25,0.08-0.5,0.17-0.75,0.17c-1,0.17-2.05-0.37-3.09-0.98c-1.05-0.59-2.08-1.42-3.56-1.78c-0.73-0.2-1.56-0.17-2.33,0.08
		c-0.8,0.23-1.33,0.55-1.95,0.95c-0.59,0.39-1.14,0.91-1.59,1.45c-0.45,0.58-0.8,1.14-1.14,1.59c-0.33,0.47-0.66,0.83-1.06,1.16
		c-0.39,0.31-0.86,0.58-1.34,0.81c-0.98,0.45-1.83,0.56-2.84,0.34c-0.53-0.09-1.12-0.27-1.84-0.41c-0.72-0.14-1.55-0.17-2.34-0.06
		c-0.81,0.11-1.53,0.38-2.25,0.72c-0.47,0.25-0.91,0.58-1.33,0.97c0.03-0.59,0.08-1.19,0.11-1.8c0.17-2.66,0.36-5.37-0.2-8.01
		c-0.73-3.5-1.03-6.97-1.33-10.66c-0.14-1.52-0.27-3.05-0.41-4.58c-0.36-3.44-0.7-7.09-0.86-11h23.37c0.23,2.22,0.61,4.41,1,6.55
		c0.3,1.75,0.61,3.42,0.81,5.09C184.78,330.03,185.94,333.2,187.07,336.26z"/>
	<path class="st0" d="M159.87,361.79c0.11-0.08,0.2-0.13,0.3-0.19c0.94,2.22,1.98,4.41,3.02,6.51c0.8,1.59,1.59,3.23,2.31,4.81
		c1.3,2.91,3.44,5.25,5.52,7.5c1.62,1.78,3.17,3.47,4.25,5.33c0.73,1.27,1.44,2.52,2.12,3.78c1.81,3.25,3.67,6.62,5.95,9.73
		c2.02,2.8,4.42,5.17,6.73,7.47c1.33,1.33,2.72,2.69,3.98,4.09c1.42,1.58,2.27,3.92,3.14,6.41c1.09,3.05,2.22,6.2,4.61,8.37
		c2.34,2.12,5.37,3.25,8.31,4.33c2.34,0.89,4.58,1.72,6.34,3c2.77,2.02,5.77,3.53,8.67,5c1.7,0.84,3.45,1.73,5.12,2.69
		c1.7,1,3.37,2.14,5.02,3.25c2.64,1.8,5.39,3.66,8.47,5.03c3.11,1.39,6.39,2.25,9.55,3.08c1.83,0.47,3.73,0.97,5.56,1.56
		c0.61,0.2,1.2,0.45,1.81,0.73c-0.06,0.09-0.09,0.16-0.16,0.22c0.06-0.09-0.02-0.03-0.31,0.02c-0.25,0.05-0.64,0.08-1.03,0.09
		c-0.81,0.05-1.77,0.02-2.8,0.02c-1.03,0-2.11-0.03-3.42,0.12c-0.33,0.05-0.7,0.13-1.05,0.19c-0.39,0.09-0.81,0.22-1.22,0.37
		c-0.23,0.11-0.48,0.22-0.72,0.34c-0.25,0.16-0.45,0.22-0.72,0.47c-0.53,0.44-1.02,0.84-1.42,1.55c-0.75,1.3-0.83,2.34-0.91,3.14
		c-0.05,0.84,0.03,1.5,0.09,2.16c0.14,1.25,0.36,2.31,0.55,3.3c0.16,0.84,0.31,1.64,0.41,2.34c-0.31-0.02-0.64-0.05-1-0.09
		c-0.91-0.09-1.95-0.2-3.17-0.27c-0.28-0.03-0.61-0.05-0.95-0.03c-0.34,0-0.67,0-1.09,0.05l-0.61,0.05
		c-0.19,0.02-0.44,0.08-0.69,0.11c-0.22,0.06-0.47,0.11-0.7,0.17c-0.28,0.09-0.56,0.2-0.84,0.31c-0.52,0.17-1.23,0.62-1.83,1.06
		c-0.06,0.06-0.16,0.13-0.19,0.17l-0.13,0.13l-0.27,0.23L236,471c-0.33,0.36-0.66,0.77-0.95,1.19c-0.25,0.44-0.53,0.91-0.73,1.39
		c-0.44,0.97-0.61,1.91-0.77,2.72c-0.05,0.39-0.09,0.77-0.11,1.08c-1.8-0.44-3.5-0.94-5.11-1.69c-2.44-1.16-5.14-1.7-7.75-2.23
		c-2.91-0.59-5.64-1.16-7.87-2.44c-4.33-2.52-9.05-5.53-13.59-8.72c-1.95-1.36-3.25-3.83-4.64-6.47c-1.37-2.58-2.8-5.27-5-7.11
		c-2.19-1.81-4.89-2.86-7.53-3.89c-2.73-1.05-5.3-2.05-7.01-3.78c-1.53-1.52-3.2-2.98-4.81-4.41c-2.41-2.14-4.92-4.36-6.92-6.73
		c-1.41-1.67-1.64-4.58-1.91-7.66c-0.28-3.25-0.56-6.59-2.33-9.12c-1.5-2.12-3.37-3.92-5.2-5.66c-2.11-2-4.09-3.87-5.44-6.19
		c-1.31-2.27-1.97-4.94-2.64-7.75c-0.59-2.42-1.23-4.97-2.33-7.33c-1.19-2.55-3.12-4.61-5.02-6.61c-1.97-2.11-3.84-4.11-4.69-6.42
		c-0.05-0.14-0.11-0.27-0.16-0.36c0.73-0.22,1.45-0.47,2.11-0.77c0.67-0.33,1.3-0.67,1.97-1.09c0.67-0.41,1.34-0.94,1.92-1.52
		c0.61-0.59,1.09-1.22,1.42-1.64c0.34-0.45,0.59-0.72,0.92-1c0.33-0.3,0.7-0.56,1.16-0.81c0.45-0.27,0.92-0.5,1.34-0.67
		c0.45-0.16,0.84-0.28,1.34-0.37c0.48-0.08,1.16-0.12,1.92-0.28c0.78-0.16,1.56-0.41,2.27-0.69c0.67-0.28,1.44-0.7,1.75-0.86
		c0.41-0.17,0.78-0.33,1.16-0.37c0.37-0.06,0.81-0.05,1.41,0.02c0.58,0.05,1.36,0.14,2.2,0.08c0.84-0.06,1.7-0.23,2.44-0.56
		C159.21,362.13,159.52,361.94,159.87,361.79z"/>
	<path class="st0" d="M123.76,338.76c0.23,1.27,0.47,2.55,0.7,3.83c0.39,2.22,0.02,4.69-0.41,7.3c-0.48,3.12-1,6.34-0.17,9.42
		c0.83,3.08,2.2,5.97,3.58,8.78c-0.55,0.2-1.08,0.39-1.58,0.62c-0.55,0.23-0.98,0.42-1.45,0.58c-0.45,0.17-0.86,0.25-1.39,0.34
		c-0.48,0.11-1.2,0.2-1.98,0.41c-0.78,0.19-1.55,0.45-2.23,0.73c-0.36,0.14-0.69,0.28-1.03,0.45l-0.11,0.05l-0.2,0.11l-0.39,0.23
		c-0.25,0.16-0.52,0.31-0.75,0.53c-1,0.8-1.72,1.91-2.11,2.92c-0.37,0.95-0.56,1.89-0.67,2.59c-0.19,1.48-0.33,2.58-0.52,2.98
		c-0.11,0.19-0.11,0.16-0.06,0.05c0.05-0.02,0.03-0.05,0.03-0.06l-0.8,0.39c-1.17,0.55-2.44,1.2-3.5,1.8
		c-1.05,0.53-2.09,1.05-3.19,1.55c-0.08,0.05-0.16,0.09-0.23,0.12c-0.33,0.19-0.61,0.41-0.86,0.66c-0.58-1.08-1.22-2.11-1.81-3.12
		c-1.53-2.56-2.95-4.97-3.8-7.64c-1.52-4.92-2.7-9.81-4.03-15.62c-0.7-3.08-0.97-6.14-1.25-9.39c-0.2-2.16-0.39-4.39-0.73-6.64
		c-0.48-3.3-0.62-6.53-0.73-9.97c-0.08-1.95-0.16-4-0.31-6.06c-0.2-2.86-1.37-5.56-2.5-8.19c-0.53-1.2-1.02-2.37-1.42-3.53h30.53
		c0.42,1.67,1.03,3.3,1.62,4.91c0.91,2.39,1.75,4.66,1.94,6.84C122.29,330.87,123.03,334.87,123.76,338.76z"/>
	<path class="st0" d="M525.06,319.09c-0.77,2.58-1.55,5.23-1.75,7.92c-0.19,0.05-0.37,0.08-0.56,0.14
		c-0.37,0.12-0.77,0.27-1.08,0.37l-0.84,0.34c-1,0.44-1.36,0.58-1.61,0.67c-0.06,0-0.12,0.03-0.22,0.03h-0.3
		c-0.13-0.03-0.25-0.05-0.37-0.06c-0.06-0.03,0.08,0.09,0.02,0.08c-0.12,0.06-0.78-0.48-1.42-1.3c-0.69-0.8-1.45-1.86-2.64-3.05
		c-0.62-0.59-1.31-1.23-2.41-1.77c-0.27-0.16-0.56-0.27-0.86-0.37c-0.28-0.09-0.62-0.2-0.81-0.22c-0.45-0.11-0.91-0.17-1.31-0.2
		c-1.72-0.14-3.14,0.09-4.36,0.33c-1.23,0.23-2.28,0.47-3.16,0.59c-0.22,0.03-0.44,0.05-0.62,0.06h-0.27l-0.14,0.02l-0.23-0.02
		c-0.61-0.03-1.23-0.06-1.86-0.08c-2.45-0.06-4.87,0.08-7.25,0.3c-0.31,0.05-0.64,0.05-0.97,0.05c-0.27-1.73-0.72-3.47-1.17-5.14
		c-0.25-0.97-0.52-1.89-0.73-2.81h38.06C525.89,316.32,525.48,317.68,525.06,319.09z"/>
	<path class="st0" d="M488.27,353.29c1.09-3.19,2.19-6.47,2.77-9.83c0.56-3.09,0.11-6.26-0.31-9.36c-0.33-2.37-0.62-4.62-0.52-6.76
		c0.3,0.03,0.58,0.11,0.87,0.11c2.25,0.14,4.45,0.39,6.61,0.8c0.55,0.11,1.08,0.22,1.61,0.34l0.2,0.03l0.3,0.06
		c0.2,0.03,0.41,0.08,0.61,0.09c0.37,0.05,0.75,0.06,1.11,0.08c1.44,0.06,2.69-0.05,3.77-0.06c1.08-0.03,1.98,0.03,2.56,0.2
		c0.16,0.05,0.28,0.09,0.39,0.16c0.09,0.03,0.03,0.05,0,0.05s-0.06-0.03-0.06,0c-0.05,0,0.08,0.19,0.25,0.42
		c0.36,0.53,0.86,1.45,1.5,2.55c0.67,1.08,1.39,2.45,3.19,3.87c0.39,0.31,1.06,0.69,1.52,0.94c0.41,0.17,0.83,0.36,1.25,0.55
		c0.44,0.16,0.92,0.28,1.39,0.41c0.47,0.12,1,0.19,1.5,0.25c0.39,0.05,0.77,0.03,1.14,0.03c-0.53,1.52-0.98,3.06-1.22,4.67
		c-0.45,2.98,0.34,6.05,1.12,9.01c0.77,2.91,1.47,5.67,0.94,8c-0.52,2.28-2.56,4.36-4.72,6.56c-2.23,2.28-4.55,4.64-5.45,7.59
		c-0.87,2.77-0.78,5.75-0.69,8.64c0.09,2.94,0.16,5.72-0.73,8.03c-0.72,1.83-1.41,3.69-2.05,5.5c-1.17,3.31-2.39,6.7-3.89,9.81
		c-2.45,5.08-4.87,10.03-7.53,14.62c-1.34,2.33-2.25,4.97-3.12,7.53c-0.97,2.89-1.91,5.64-3.44,7.87c-1.27,1.87-4.08,2.95-7.03,4.09
		c-3.12,1.22-6.37,2.47-8.33,4.94c-1.42,1.77-2.7,3.61-3.97,5.39c-1.87,2.69-3.66,5.22-5.8,7.53c-2,2.12-3.19,4.94-4.33,7.66
		c-1.17,2.75-2.28,5.36-4.11,7.05c-1.66,1.53-4.58,1.97-7.69,2.42c-3.28,0.48-6.69,0.97-9.16,2.94c-2.16,1.73-3.86,3.89-5.5,6
		c-1.81,2.3-3.52,4.47-5.7,5.97c-2.34,1.59-4.2,3.81-6,5.97c-0.62,0.75-1.25,1.5-1.87,2.2c-1.28,1.44-2.58,2.69-4.08,3.56
		c-2.17,1.25-4.22,2.77-6.22,4.25c-2.47,1.81-5,3.7-7.66,4.98c-2.12,1.02-5.02,0.86-8.06,0.69c-0.84-0.05-1.69-0.09-2.55-0.09h-0.02
		c-2.31-0.08-4.58,0.03-6.64,0.84c-1.8,0.7-3.33,1.89-4.78,3.28l-0.02,0.02c-0.83,0.78-1.64,1.61-2.42,2.44
		c-2.11,2.23-4.12,4.36-6.41,5.08c-2.87,0.87-6.08,1.33-9.19,1.73c-2.37,0.34-4.83,0.69-7.17,1.2c-2.28,0.53-4.58,1.25-6.81,1.94
		c-3.05,0.94-6.19,1.92-9.25,2.37c-2.61,0.39-5.44-0.05-8.44-0.5c-2.23-0.34-4.53-0.69-6.83-0.69c-0.5,0-1,0.02-1.48,0.05
		c-4.3,0.31-8.8,0.3-13.14,0.28c-1.08-0.02-2.17-0.02-3.25-0.02c-2.44,0-4.91,0.23-7.26,0.42c-3.2,0.28-6.23,0.56-9.19,0.33
		c-2.55-0.17-5.06-1.48-7.72-2.84c-0.75-0.39-1.5-0.78-2.27-1.14h-0.02l-0.02-0.02c-1.84-0.89-3.73-1.66-5.75-1.95
		c-1.78-0.27-3.52-0.48-5.25-0.7c-3.72-0.48-7.23-0.94-10.76-1.73c-1.83-0.42-3.7-0.45-5.58-0.33h-0.02
		c-1.05,0.05-2.08,0.16-3.11,0.25c-2.98,0.31-5.78,0.58-8.17-0.14c-2.61-0.81-5.03-2.37-7.58-4.02c-1.69-1.06-3.39-2.17-5.22-3.08
		c-0.02-0.02-0.03-0.02-0.05-0.03c-0.59-0.28-1.19-0.55-1.8-0.78c-2.36-0.92-4.36-2.86-6.48-4.91c-0.38-0.36-0.75-0.7-1.14-1.06
		c0.41-0.61,0.75-1.2,1-1.73c0.39-0.81,0.66-1.56,0.83-2.19c0.37-1.25,0.61-2.2,0.75-2.75c0.08-0.31,0.14-0.42,0.13-0.47
		c-0.02,0-0.11,0.11-0.34,0.3l2.11-2.14l2.06-2.16l1-1.02l0.52-0.52l0.13-0.11c0.02-0.03,0.03-0.05,0.05-0.08
		c0.05-0.05,0.05-0.05,0.05-0.08c-0.02,0.02-0.03-0.02-0.05-0.02c-0.08,0-0.11-0.02,0.08-0.09c0.16-0.06,0.67-0.11,1.41-0.27
		c0.7-0.14,1.7-0.37,2.64-0.8c0.95-0.39,1.8-0.94,2.53-1.5c0.34-0.27,0.67-0.55,0.98-0.83l0.45-0.45c0.28-0.27,0.55-0.52,0.78-0.73
		c0.28-0.22,0.5-0.41,0.84-0.64c0.67-0.45,1.98-1.33,2.92-2.14c0.48-0.42,0.92-0.83,1.34-1.23c0.09-0.08,0.28-0.28,0.45-0.45
		l0.5-0.55c0.31-0.37,0.62-0.81,0.91-1.25c0.13-0.22,0.22-0.44,0.31-0.67c0.05,0.02,0.09,0.03,0.14,0.05
		c2.11,0.75,4.08,1.94,6.2,3.17c2.64,1.55,5.37,3.17,8.47,4c3.05,0.8,6.2,0.45,9.26,0.11c2.56-0.3,4.97-0.56,7.22-0.17
		c2.11,0.37,4.17,0.95,6.34,1.59c2.97,0.83,6.05,1.72,9.31,2c2.2,0.19,4.39,0.7,6.7,1.28c3.02,0.7,6.12,1.45,9.34,1.45
		c5.16,0,10.3-0.45,15.26-0.87l0.94-0.08c3.2-0.28,6.14-1.42,9.01-2.52c2.28-0.86,4.44-1.69,6.62-2.08
		c1.34-0.25,2.69-0.45,4.02-0.67c3.84-0.62,7.83-1.27,11.73-2.31c4.7-1.27,9.55-2.83,15.26-4.91c2.11-0.78,4.56-0.92,7.14-1.09
		c3.11-0.2,6.34-0.41,9.2-1.75c3.03-1.42,5.83-3.33,8.53-5.16c1.81-1.23,3.55-2.42,5.36-3.47c2.77-1.59,5.08-3.78,7.33-5.89
		c1.73-1.66,3.39-3.22,5.2-4.48c1.77-1.23,3.72-2.34,5.61-3.44c2.73-1.53,5.56-3.16,8.05-5.27c1.73-1.44,3.73-2.62,5.84-3.89
		c0.67-0.39,1.36-0.78,2.03-1.2c1.08,0.05,2.16-0.33,2.98-1.11c0.5-0.48,0.83-1.06,1.02-1.67c0.58-0.47,1.12-0.95,1.66-1.47
		c1.28-1.27,2.66-2.58,3.98-3.81c2.62-2.47,5.34-5,7.66-7.76c2.09-2.47,2.83-5.77,3.56-8.94c0.62-2.66,1.19-5.14,2.45-6.94
		c1.25-1.81,3.37-3.2,5.61-4.7c2.69-1.78,5.48-3.66,7.08-6.44c1.64-2.8,1.77-6.17,1.87-9.45c0.08-2.72,0.17-5.31,1.11-7.28
		c0.94-2.02,2.67-3.8,4.5-5.67c2.2-2.28,4.5-4.62,5.61-7.67c1.87-5.16,3.53-10.41,4.91-15.59
		C486.94,357.27,487.58,355.34,488.27,353.29z"/>
	<path class="st0" d="M422.89,326.2c-0.7,5.33-2.02,10.66-3.22,15.17c-1.41,5.22-3.41,10.31-5.19,14.58
		c-2.02,4.89-4.31,9.56-6.83,13.89c-1.33,2.31-3.41,4.19-5.61,6.14c-1.73,1.58-3.56,3.22-5.03,5.12c-1.52,1.98-2.61,4.22-3.66,6.39
		c-1.06,2.23-2.12,4.31-3.53,6.05c-0.06-0.22-0.12-0.42-0.2-0.62c-0.16-0.25-0.28-0.53-0.47-0.78c-0.66-0.94-1.62-1.72-2.77-2.05
		c-1.11-0.36-2.2-0.3-3.19-0.27c-0.95,0.03-1.91,0.03-2.67-0.31c-0.81-0.34-1.52-1-1.98-1.77c-0.48-0.78-0.64-1.73-0.59-2.69
		c0.05-0.98,0.22-1.98,0.08-3c-0.09-1.02-0.55-1.97-1.22-2.7c0.62,0.8,0.97,1.75,0.98,2.73c0.03,0.95-0.22,1.91-0.33,2.92
		c-0.16,1-0.08,2.11,0.41,3.08c0.47,0.95,1.2,1.8,2.22,2.34c0.98,0.52,2.11,0.59,3.11,0.66c1,0.05,1.92,0.11,2.69,0.42
		c0.75,0.3,1.37,0.89,1.8,1.59c0.41,0.69,0.48,1.44,0.39,2.3c0,0.03-0.02,0.05-0.02,0.08c-0.98,1.03-1.92,2.06-2.86,3.08
		c-2.25,2.48-4.56,5.06-7.14,7.03c-2.05,1.58-4.7,2.42-7.53,3.3c-2.36,0.73-4.81,1.5-7,2.78c-1.39,0.8-2.78,1.66-4.09,2.5
		c-3.09,1.91-6.02,3.72-9.23,5.05c-5.45,2.27-10.06,3.87-14.51,5.06c-2.06,0.56-4.08,1.31-6.05,2.06c-3.02,1.12-5.86,2.2-8.83,2.58
		c-3.02,0.39-6.14,0.17-9.45-0.05c-2-0.14-4.06-0.28-6.11-0.28c-2.33,0-4.67,0.31-6.95,0.61c-3.06,0.39-5.97,0.78-8.7,0.44
		c-2.95-0.39-5.92-1.53-8.81-2.62c-0.83-0.33-1.69-0.62-2.53-0.95c0.22-1.31,0.42-2.61,0.72-3.84c0.33-1.14,0.28-2.34,0.14-3.39
		c-0.16-1.08-0.39-2.05-0.59-3.02c-0.2-0.95-0.37-1.91-0.36-2.8c0-0.83,0.3-1.92,0.33-2.97c0.03-1.03-0.02-2.09-0.23-3.11
		c-0.16-0.87-0.44-1.72-0.66-2.55c1.58,0.2,3.17,0.33,4.73,0.45c2.08,0.16,4.2,0.31,6.2,0.66c0.7,0.12,1.42,0.27,2.12,0.38
		c4.7,0.86,9.58,1.73,14.59,1.73c3.78,0,7.33-0.98,10.76-1.91c1.98-0.56,3.84-1.06,5.73-1.39c5.58-0.97,10.48-2.69,15.87-4.64
		c1.08-0.39,2.16-0.77,3.23-1.16c4.05-1.41,8.23-2.86,12.14-5.12c3.98-2.3,7.39-5.23,10.7-8.08c0.78-0.69,1.59-1.37,2.41-2.06
		c1.61-1.34,3.44-2.47,5.39-3.67c2.92-1.78,5.94-3.64,8.23-6.37c2.33-2.77,3.78-6.08,5.17-9.3c0.86-2,1.7-3.89,2.72-5.64
		c0.91-1.58,1.97-3.17,2.98-4.69c2.06-3.05,4.16-6.19,5.48-9.81c1.66-4.55,2.48-9.44,3.3-14.12c0.12-0.75,0.25-1.5,0.39-2.27
		c0.72-4.12,0.78-8.17,0.77-12.39h20.98c0.17,1.03,0.37,2.08,0.58,3.08C422.67,320.93,423.23,323.62,422.89,326.2z"/>
	<path class="st0" d="M589.96,330.93l-2.45,0.27c-0.12-0.11-0.23-0.22-0.34-0.31c-0.91-0.77-1.98-1.61-3.42-2.28
		c-0.38-0.19-0.77-0.36-1.19-0.5c-0.95-0.39-1.97-0.58-2.98-0.73c-0.47-0.06-0.94-0.08-1.41-0.09h-0.7l-0.34,0.02l-0.16,0.02
		c-0.7,0.06-1.41,0.14-2.23,0.28c-1.58,0.22-3.62,0.78-4.44,1.08l-1.12,0.39c-0.36,0.11-0.73,0.22-1.14,0.31l-2.05,0.53
		c-0.27,0.2-0.66,0.38-1.12,0.55c0.05-1.14,0.08-2.27,0.16-3.39c0.17-3.14-0.75-6.16-1.67-9.08c-0.31-1.02-0.62-2-0.89-3h28.36
		c0.14,1.41,0.33,2.81,0.52,4.16c0.39,2.75,0.73,5.34,0.61,7.67c-0.06,1.08-0.72,2.55-1.5,4.08L589.96,330.93z"/>
	<path class="st0" d="M217.73,309.03h-1.59l-1.36-1.55l-0.42-0.47l109.6-98.91l-1.39-1.39c-5.94-5.94-5.94-15.58,0-21.51
		l29.75,29.75c-5.94,5.94-15.58,5.94-21.51,0l-2.03-2.03l-109.25,94.57L217.73,309.03z"/>
	<path class="st0" d="M431.84,187.76c18.72,17.09,24.09,43.85,13.83,64.88c-17.95,36.78-70.4,28.7-71.27,25.53
		c-0.72-2.61,32.87-5.11,49.99-30.31C437.49,228.58,435.31,204.34,431.84,187.76z"/>
	<path class="st0" d="M414.82,250.52C390,281.98,333.49,268.2,333.44,267c-0.03-1.02,41.2,6.7,68.09-17.55
		c16.09-14.51,21.04-35.11,22.86-48.93C425.9,209.1,428.87,232.71,414.82,250.52z"/>
	<path class="st0" d="M528.64,182.45c-10.78-9.03-28.45-2.98-30.86-2.12c1.44-2.33,8.62-13.55,20.75-14.9
		c14.48-1.62,26.48,11.89,30.37,21.01c8.56,20.15-8.39,51.99-43.67,77.38c7.67-6.12,20.73-18.56,26.59-38.29
		C534.45,216.68,541.44,193.15,528.64,182.45z"/>
	<path class="st0" d="M583.95,255.31c5.08,10.26,0.25,22.31-9.05,26.06c-7.95,3.2-17.97-0.19-22.86-8.51
		c2.5,0.55,9.42,1.72,17.01-1.59C579.5,266.7,583.26,257.14,583.95,255.31z"/>
	<path class="st0" d="M537.67,131.92c14.2,2.92,22.11,19.54,23.94,23.4c11.33,23.78,0.2,47.39-1.59,51.06
		c5.69-18.9-1.27-38.51-15.42-47.34c-18.11-11.31-46.46-4.02-58.51,19.67C496.55,146.22,520.17,128.3,537.67,131.92z"/>
	<path class="st0" d="M379.19,131.92c26.56-44.81,37.7-52.92,45.07-56.84c13.83-7.34,24.87-6.19,28.73-4.78
		c4.25,1.53,7.45,4.31,7.45,4.31c2.52,2.19,3.83,4.31,4.12,4.81c0,0,1.14,2.02,1.91,4.36c3.97,11.98-2.02,23.51-4.78,28.73
		c-3.92,7.37-12.03,18.51-56.84,45.07c-20.76,12.3-35.57,19.72-41.09,36.5c-1.44,4.37-1.86,8.23-2,10.84
		c0.05,0.2,0.55,3.16-1.59,5.19c-1.72,1.62-4.39,1.97-6.64,0.8c-4.61-4.61-9.22-9.22-13.83-13.83c-4.62-4.62-9.23-9.23-13.84-13.84
		c-1.17-2.25-0.83-4.92,0.81-6.64c2.02-2.14,4.97-1.64,5.17-1.59c2.61-0.13,6.47-0.56,10.84-2
		C359.47,167.5,366.89,152.68,379.19,131.92z"/>
	<path class="st0" d="M297.68,18.9c7.76-10.58,24.37-17.86,39.48-13.56c6.86,1.94,11.66,5.78,14.37,8.37
		c-2.8-0.05-21.89,0.02-34.72,15.15c-11.45,13.53-13.26,33.65-4.39,50.65C290.4,62.38,286.2,34.54,297.68,18.9z"/>
	<path class="st0" d="M151.68,98.67c4.8-3.42,21.28-14.89,45.07-16.36c6.23-0.37,41.9-2.59,63.82,24.34
		c13.01,15.98,14.56,34.09,14.76,41.48c-5.25-11.8-16.09-30.18-36.54-39.7c-38.98-18.09-88.98,7.22-106.25,36.51
		c-8.86,15-16.75,43.96-17.15,45.46c-2.41,8.92-3.89,16.42-4.8,21.54C110.04,206.68,103.45,133.12,151.68,98.67z"/>
	<path class="st0" d="M26.02,228.32c3.22-17.12,25.29-31.67,52.26-35.9c-2.44,2.16-26.42,23.92-21.54,49.06
		c2.62,13.47,12.69,23.67,20.15,31.23c7.95,8.08,15.94,13.34,21.73,16.64C49.47,285.42,21.77,251.07,26.02,228.32z"/>
</g>
</svg>
